<?xml version="1.0" encoding="UTF-8"?>
<svg width="11px" height="53px" viewBox="0 0 11 53" version="1.1" xmlns="http://www.w3.org/2000/svg" xmlns:xlink="http://www.w3.org/1999/xlink">
    <title>Line 2</title>
    <g id="Page-1" stroke="none" stroke-width="1" fill="none" fill-rule="evenodd">
        <g id="Desktop" transform="translate(-91.000000, -554.000000)" fill="#9398FF" fill-rule="nonzero">
            <path id="Line-2" d="M96.5,554 C96.7454599,554 96.9496084,554.176875 96.9919443,554.410124 L97,554.5 L97,604.091 L100.564212,597.754869 C100.699594,597.51419 101.004452,597.42883 101.245131,597.564212 C101.459067,597.684552 101.550283,597.938798 101.472829,598.162848 L101.435788,598.245131 L96.9357878,606.245131 L96.5,607.019864 L96.0642122,606.245131 L91.5642122,598.245131 C91.4288303,598.004452 91.5141904,597.699594 91.7548694,597.564212 C91.9688062,597.443873 92.2334521,597.497947 92.3847041,597.680485 L92.4357878,597.754869 L96,604.091 L96,554.5 C96,554.223858 96.2238576,554 96.5,554 Z"></path>
        </g>
    </g>
</svg>