<?xml version="1.0" encoding="UTF-8"?>
<svg width="105px" height="25px" viewBox="0 0 105 25" version="1.1" xmlns="http://www.w3.org/2000/svg" xmlns:xlink="http://www.w3.org/1999/xlink">
    <title>JoelRivera</title>
    <g id="Page-1" stroke="none" stroke-width="1" fill="none" fill-rule="evenodd">
        <g id="Desktop" transform="translate(-87.000000, -60.000000)" fill-rule="nonzero">
            <g id="JoelRivera" transform="translate(87.425000, 60.450000)">
                <path d="M0.05,23.925 C4.875,23.3 7.075,20.275 7.075,18.325 L7,9.8 L7.00062211,8.76300637 C7.00555556,5.16493056 7.04375,3.77083333 7.25,3.175 C7.45,2.575 7.85,2.25 9.275,2.225 L9.275,1.8 C8.23055556,1.82222222 6.88981481,1.84444444 5.53371056,1.84910837 L5.025,1.85 C3.5,1.85 1.975,1.825 0.775,1.8 L0.775,2.225 C2.2,2.25 2.6,2.575 2.8,3.175 C3.00625,3.77083333 3.04444444,5.16493056 3.04937789,8.76300637 L3.04993838,9.44180116 C3.04998071,9.55908565 3.05,9.67847222 3.05,9.8 L3.05,16.775 C3.05,20.375 2.275,22.3 -2.13162821e-14,23.75 L0.05,23.925 Z M15.1142696,18.8 C18.4642696,18.8 21.5392696,16.3 21.5392696,12.725 C21.5392696,9.2 18.4642696,6.8 15.1142696,6.8 C11.7892696,6.8 8.71426957,9.3 8.71426957,12.875 C8.71426957,16.4 11.7892696,18.8 15.1142696,18.8 Z M15.1142696,18.25 C13.5892696,18.25 12.7892696,15.7 12.7892696,12.575 C12.7892696,9.3 13.5892696,7.35 15.1142696,7.35 C16.6642696,7.35 17.4642696,9.9 17.4642696,13.025 C17.4642696,16.3 16.6642696,18.25 15.1142696,18.25 Z M27.4785391,18.8 C29.6035391,18.8 31.7785391,17.35 32.4785391,15.2 L32.3535391,15.125 C31.6285391,15.975 30.8035391,16.3 29.8285391,16.3 C27.3285391,16.3 25.6785391,14.475 25.6785391,11.475 C25.6785391,11.3 25.6785391,11.15 25.7035391,10.975 L31.1285391,10.975 C31.9285391,10.975 32.2035391,10.6 32.2035391,9.975 C32.2035391,8.025 30.4535391,6.8 28.1285391,6.8 C25.0535391,6.8 22.0285391,9.475 22.0285391,13.3 C22.0285391,16.6 24.3285391,18.8 27.4785391,18.8 Z M25.7535391,10.475 C25.9785391,8.85 26.7785391,7.525 27.9035391,7.525 C28.8785391,7.525 29.2535391,8.375 29.2535391,9.725 C29.2535391,10.05 29.1035391,10.3 28.6285391,10.325 L25.7535391,10.475 Z M37.9678087,18.55 L37.9678087,18.175 L37.8178087,18.15 C37.1437346,18.0296296 37.1187689,17.9092593 37.1178443,16.1592491 L37.1178087,4.325 C37.1178087,2.275 37.1928087,0.575 37.2428087,0.05 L37.1178087,-7.10542736e-15 C36.0178087,0.425 33.7678087,1.125 32.5178087,1.4 L32.5178087,1.525 L33.1678087,2.45 C33.4344754,2.82777778 33.464105,3.12654321 33.4673972,3.41652949 L33.4675242,16.3540339 C33.4639678,17.9185185 33.4159568,18.0342593 32.7678087,18.15 L32.6178087,18.175 L32.6178087,18.55 C33.076142,18.5291667 33.8990587,18.5083333 34.7682717,18.5019676 L35.2928087,18.5 L35.2928087,18.5 C36.3678087,18.5 37.4178087,18.525 37.9678087,18.55 Z" id="Joel" fill="#FFFFFF"></path>
                <path d="M54.4820783,18.975 C55.5570783,18.975 56.9570783,18.65 57.5820783,18.325 L57.5820783,18.175 C55.9070783,18.175 54.6570783,17.05 53.1820783,15.525 C52.2320783,14.55 50.5820783,12.125 49.5820783,10.325 C51.4820783,9.925 53.5320783,8.575 53.5320783,6.225 C53.5320783,3.225 50.6570783,1.75 46.5070783,1.75 C44.9320783,1.75 43.2320783,1.85 41.4820783,1.85 C40.2320783,1.85 39.0320783,1.825 38.0320783,1.8 L38.0320783,2.225 C39.4570783,2.25 39.9320783,2.575 40.1320783,3.175 C40.3508283,3.80694444 40.3805351,5.33684414 40.3820166,9.44180116 L40.3820783,10.55 C40.3820783,14.925 40.3570783,16.525 40.1320783,17.175 C39.9320783,17.775 39.5320783,18.1 38.1070783,18.125 L38.1070783,18.55 C39.3070783,18.525 40.8320783,18.5 42.3570783,18.5 C43.8820783,18.5 45.4320783,18.525 46.6070783,18.55 L46.6070783,18.125 C45.1820783,18.1 44.7820783,17.775 44.5820783,17.175 C44.3769312,16.6051471 44.3380471,15.2663279 44.3327824,11.8889534 L44.3320783,10.85 L44.3320783,10.85 L46.6070783,10.95 C47.0570783,12.575 47.7320783,15 48.9820783,16.65 C50.2070783,18.275 51.7570783,18.975 54.4820783,18.975 Z M44.3320783,10.275 L44.3329659,7.2974398 C44.3354809,5.30926276 44.3451217,3.925 44.3820783,2.65 C44.3820783,2.65 44.4009558,2.64795918 44.4344106,2.64446064 L44.5742065,2.63017493 C44.8657517,2.60102041 45.4142211,2.55 45.6820783,2.55 C47.8320783,2.55 49.3070783,4.025 49.3070783,6.425 C49.3070783,8.725 47.8070783,10.15 46.9320783,10.175 L44.3320783,10.275 Z M59.5213478,5.15 C60.5963478,5.15 61.5213478,4.3 61.5213478,3.125 C61.5213478,1.95 60.5963478,1.1 59.5213478,1.1 C58.4463478,1.1 57.5213478,1.95 57.5213478,3.125 C57.5213478,4.3 58.4463478,5.15 59.5213478,5.15 Z M62.0713478,18.55 L62.0713478,18.175 L61.9213478,18.15 C61.2731997,18.0342593 61.2251887,17.9185185 61.2216323,16.3540339 L61.2213478,10.575 C61.2213478,8.525 61.2713478,7.3 61.3213478,6.775 L61.1963478,6.725 C60.1463478,7.225 57.9963478,8.05 56.7463478,8.425 L56.7463478,8.55 L57.2713478,9.45 C57.5713478,9.925 57.5713478,10.2 57.5713478,10.525 L57.5710633,16.3540339 C57.5675069,17.9185185 57.519496,18.0342593 56.8713478,18.15 L56.7213478,18.175 L56.7213478,18.55 C57.2713478,18.525 58.3463478,18.5 59.3963478,18.5 C60.4713478,18.5 61.5213478,18.525 62.0713478,18.55 Z M68.0106174,18.8 L72.6606174,8.25 C72.9356174,7.625 73.0606174,7.425 73.7856174,7.375 L73.7856174,7.05 C73.2606174,7.075 72.8106174,7.1 72.2856174,7.1 C71.7856174,7.1 71.2106174,7.075 70.4106174,7.05 L70.4106174,7.375 C71.3606174,7.475 71.6106174,7.625 71.6106174,8 C71.6106174,8.15 71.5606174,8.35 71.4606174,8.6 L69.3356174,14.075 L67.1106174,8.55 C67.0106174,8.3 66.9356174,8.1 66.9356174,7.925 C66.9356174,7.6 67.1856174,7.475 68.0856174,7.375 L68.0856174,7.05 C67.2856174,7.075 66.1606174,7.1 65.0106174,7.1 C63.8606174,7.1 62.6856174,7.075 61.7106174,7.05 L61.7106174,7.375 C62.3606174,7.425 62.4356174,7.65 62.7106174,8.225 L67.7606174,18.8 L68.0106174,18.8 Z M78.049887,18.8 C80.174887,18.8 82.349887,17.35 83.049887,15.2 L82.924887,15.125 C82.199887,15.975 81.374887,16.3 80.399887,16.3 C77.899887,16.3 76.249887,14.475 76.249887,11.475 C76.249887,11.3 76.249887,11.15 76.274887,10.975 L81.699887,10.975 C82.499887,10.975 82.774887,10.6 82.774887,9.975 C82.774887,8.025 81.024887,6.8 78.699887,6.8 C75.624887,6.8 72.599887,9.475 72.599887,13.3 C72.599887,16.6 74.899887,18.8 78.049887,18.8 Z M76.324887,10.475 C76.549887,8.85 77.349887,7.525 78.474887,7.525 C79.449887,7.525 79.824887,8.375 79.824887,9.725 C79.824887,10.05 79.674887,10.3 79.199887,10.325 L76.324887,10.475 Z M89.3641565,18.55 L89.3641565,18.125 L88.5391565,18.05 C87.9141565,18.0037037 87.8464268,17.893107 87.8398221,16.3290035 L87.8391565,9.85 C88.1891565,9.575 88.4391565,9.45 88.7891565,9.45 C89.6641565,9.45 89.9391565,10.4 90.9641565,10.4 C91.6641565,10.4 92.6141565,9.725 92.6141565,8.625 C92.6141565,7.5 91.9391565,6.8 90.9141565,6.8 C89.8391565,6.8 88.9141565,7.725 87.8391565,9.475 C87.8391565,8.375 87.8891565,7.225 87.9391565,6.725 L87.8141565,6.675 C86.7641565,7.175 84.6141565,8.05 83.3641565,8.425 L83.3641565,8.55 L83.8891565,9.45 C84.1891565,9.925 84.1891565,10.2 84.1891565,10.525 L84.1891565,15.95 C84.1891565,17.9 84.1891565,18.025 83.4891565,18.15 L83.3391565,18.175 L83.3391565,18.55 C84.0391565,18.525 85.1391565,18.5 86.2641565,18.5 C87.4141565,18.5 88.5641565,18.525 89.3641565,18.55 Z M100.528426,18.725 C101.928426,18.725 103.028426,17.425 103.153426,16.3 L103.078426,16.25 C102.878426,16.4 102.628426,16.55 102.253426,16.55 C101.603426,16.55 101.303426,16.225 101.303426,15.425 C101.303426,13.9 101.428426,11.1 101.428426,9.35 C101.428426,7.425 99.2284261,6.8 97.8034261,6.8 C95.2534261,6.8 92.5034261,9.675 92.5034261,11.35 C92.5034261,11.55 92.5784261,11.625 92.6784261,11.625 C93.0534261,11.625 94.5534261,11.325 94.9034261,11.225 C94.7784261,10.775 94.6784261,10.15 94.6784261,9.6 C94.6784261,8.9 94.9784261,8.55 95.7034261,8.55 C97.1784261,8.55 97.7784261,9.5 97.7784261,10.325 L97.7784261,12.35 L94.4284261,13.775 C93.1034261,14.35 92.3034261,14.725 92.3034261,16.025 C92.3034261,17.65 93.4034261,18.7 94.9534261,18.7 C96.2784261,18.7 97.1534261,17.6 97.7284261,16.875 C98.1784261,17.975 99.0534261,18.725 100.528426,18.725 Z M97.2784261,16.675 C96.4534261,16.675 95.8784261,16.15 95.8784261,15.075 C95.8784261,14.325 96.2284261,13.925 96.7034261,13.575 L97.7534261,12.775 L97.7284261,16.6 C97.5784261,16.65 97.4534261,16.675 97.2784261,16.675 Z" id="Rivera" fill="#9398FF"></path>
            </g>
        </g>
    </g>
</svg>