<?xml version="1.0" encoding="UTF-8"?>
<svg width="180px" height="46px" viewBox="0 0 180 46" version="1.1" xmlns="http://www.w3.org/2000/svg" xmlns:xlink="http://www.w3.org/1999/xlink">
    <title>Group 6</title>
    <defs>
        <polygon id="path-1" points="1.27897692e-13 45.244 179.979 45.244 179.979 -4.26325641e-14 1.27897692e-13 -4.26325641e-14"></polygon>
    </defs>
    <g id="Page-1" stroke="none" stroke-width="1" fill="none" fill-rule="evenodd">
        <g id="Desktop-Copy" transform="translate(-925.000000, -680.000000)">
            <g id="Group-6" transform="translate(925.000000, 679.999800)">
                <polygon id="Fill-1" fill="#000000" points="-4.61852778e-14 45.244 44.504 45.244 44.504 7.10542736e-14 -4.61852778e-14 7.10542736e-14"></polygon>
                <path d="M15.2754,25.9533 C15.6094,25.9533 15.8084,25.6703 15.8084,25.3873 L15.8084,17.3963 C15.8084,14.4303 19.7534,12.9693 21.8634,16.4423 C23.9584,20.0193 25.1584,22.2283 25.1584,22.2283 L25.1584,17.3963 C25.1584,14.4303 29.0454,12.9693 31.1404,16.4423 C33.2504,20.0193 34.5104,22.2283 34.5104,22.2283 L34.5104,14.4603 L39.1264,14.4603 L39.1264,27.6353 C39.1874,31.0823 35.0044,31.7513 33.3714,28.9743 C32.4004,27.3493 29.8344,23.0633 29.8344,23.0633 L29.8344,27.6353 C29.8344,31.0823 25.6324,31.7173 24.0804,28.9743 C23.0474,27.3493 20.5424,23.0633 20.5424,23.0633 L20.5424,27.3523 C20.5424,29.4843 19.2974,30.6603 17.3544,30.6603 L12.6714,30.6603 C7.1524,30.6603 4.2434,26.5953 4.1554,22.7913 C4.0604,18.6573 7.0434,14.4323 12.6784,14.4323 L14.8534,14.4323 L14.8534,19.1433 L12.3904,19.1433 C7.7684,19.2033 7.2504,25.9533 12.7394,25.9533 L15.2754,25.9533 Z" id="Fill-2" fill="#FFFFFF"></path>
                <path d="M14.8535,17.2687 L12.0825,17.2687 C10.7485,17.2687 9.4245,17.8557 8.4555,18.8317 C7.5465,19.7457 6.9505,21.0007 6.9505,22.4337 C6.9505,24.0347 7.5525,25.3567 8.4995,26.2927 C9.5205,27.3017 10.9455,27.8727 12.4575,27.8727 L17.0455,27.8727 C17.3315,27.8727 17.4865,27.8277 17.5545,27.7447 C17.6335,27.6477 17.6575,27.4547 17.6575,27.1927 L17.6575,17.6747 C17.6575,17.2007 17.7925,16.8457 17.9995,16.5997 C18.1675,16.3997 18.3795,16.2757 18.6095,16.2207 C18.8295,16.1667 19.0615,16.1797 19.2815,16.2497 C19.6005,16.3507 19.8965,16.5767 20.0845,16.8997 L26.2845,27.5647 C26.3795,27.7267 26.5005,27.8257 26.6205,27.8647 C26.6835,27.8847 26.7445,27.8887 26.7955,27.8767 C26.8365,27.8687 26.8745,27.8477 26.9005,27.8187 C26.9425,27.7717 26.9695,27.6917 26.9695,27.5787 L26.9695,17.6747 C26.9695,17.2477 27.1055,16.9167 27.3175,16.6817 C27.4895,16.4917 27.7085,16.3677 27.9445,16.3107 C28.1725,16.2557 28.4145,16.2627 28.6415,16.3307 C28.9665,16.4267 29.2695,16.6457 29.4625,16.9787 L35.5915,27.5207 C35.7025,27.7117 35.8415,27.8267 35.9765,27.8717 C36.0465,27.8947 36.1175,27.8987 36.1815,27.8827 L36.1835,27.8827 C36.2355,27.8717 36.2845,27.8427 36.3215,27.8007 C36.3805,27.7357 36.4185,27.6277 36.4185,27.4817 L36.4185,14.4607 L37.3185,14.4607 L37.3185,27.4817 C37.3185,27.8657 37.1905,28.1777 36.9895,28.4027 C36.8265,28.5827 36.6185,28.7037 36.3885,28.7577 L36.3885,28.7587 C36.1695,28.8107 35.9305,28.7997 35.6945,28.7217 C35.3635,28.6117 35.0435,28.3657 34.8145,27.9707 L28.6855,17.4287 C28.6145,17.3067 28.5055,17.2267 28.3885,17.1917 C28.3095,17.1677 28.2285,17.1647 28.1555,17.1827 C28.0915,17.1977 28.0315,17.2317 27.9855,17.2827 C27.9155,17.3617 27.8695,17.4907 27.8695,17.6747 L27.8695,27.5787 C27.8695,27.9277 27.7515,28.2117 27.5645,28.4187 C27.4105,28.5897 27.2105,28.7037 26.9925,28.7517 C26.7845,28.7987 26.5605,28.7897 26.3425,28.7177 C26.0275,28.6157 25.7225,28.3837 25.5075,28.0147 L19.3075,17.3497 C19.2355,17.2257 19.1255,17.1397 19.0115,17.1027 C18.9455,17.0817 18.8785,17.0777 18.8205,17.0917 L18.8185,17.0917 C18.7695,17.1027 18.7225,17.1307 18.6855,17.1757 C18.6075,17.2677 18.5575,17.4287 18.5575,17.6747 L18.5575,27.1927 C18.5575,27.6497 18.4845,28.0217 18.2505,28.3097 C18.0055,28.6117 17.6295,28.7717 17.0455,28.7717 L12.4575,28.7717 C10.7105,28.7717 9.0595,28.1077 7.8705,26.9317 C6.7575,25.8317 6.0515,24.2897 6.0515,22.4337 C6.0515,20.7487 6.7515,19.2727 7.8195,18.1987 C8.9545,17.0567 10.5095,16.3687 12.0825,16.3687 L14.8535,16.3687 L14.8535,17.2687 Z" id="Fill-4" fill="#000000"></path>
                <path d="M96.8242,23.8312 C96.8242,35.7452 79.6412,35.6292 79.6412,23.8012 C79.6412,11.8482 96.8242,11.9722 96.8242,23.8312 M99.6702,23.8312 C99.6702,8.2982 76.7662,8.3272 76.7662,23.8312 C76.7662,39.3402 99.6702,39.2542 99.6702,23.8312" id="Fill-6" fill="#000000"></path>
                <path d="M71.6235,23.8312 C71.6235,28.4802 68.6755,32.7622 63.6265,32.7622 C58.5165,32.7622 55.1565,28.3872 55.1565,23.7692 C55.1565,19.1962 58.4505,14.8822 63.5985,14.8822 C68.6335,14.8822 71.6235,19.3462 71.6235,23.8312 M74.3465,23.8312 C74.3465,11.4612 60.5915,9.0002 55.0895,16.2642 L55.0895,12.8982 L52.4825,12.8982 L52.4825,45.0522 L55.1015,45.0522 L55.1015,31.3972 C60.6955,38.8082 74.3465,35.8402 74.3465,23.8312" id="Fill-8" fill="#000000"></path>
                <mask id="mask-2" fill="white">
                    <use xlink:href="#path-1"></use>
                </mask>
                <g id="Clip-11"></g>
                <polygon id="Fill-10" fill="#000000" mask="url(#mask-2)" points="103.454 34.79 106.224 34.79 106.224 0.097 103.454 0.097"></polygon>
                <path d="M138.1523,2.9333 C140.6163,2.9333 140.6163,6.6753 138.1523,6.6753 C135.6893,6.6753 135.6893,2.9333 138.1523,2.9333 L138.1523,2.9333 Z M136.7913,34.7903 L139.5613,34.7903 L139.5613,12.9843 L136.7913,12.9843 L136.7913,34.7903 Z" id="Fill-12" fill="#000000" mask="url(#mask-2)"></path>
                <path d="M132.1699,15.444 L132.1699,12.925 L126.2189,12.925 L126.2189,6.949 L123.6289,6.949 L123.6289,12.925 L119.2119,12.925 L119.2119,15.444 L123.6289,15.444 L123.6289,30.11 C123.6289,35.935 129.9319,35.896 132.3879,34.437 L131.9589,31.992 C130.8849,32.447 129.2109,32.972 127.7669,32.516 C126.2489,32.037 126.2189,30.463 126.2189,29.126 L126.2189,15.444 L132.1699,15.444 Z" id="Fill-13" fill="#000000" mask="url(#mask-2)"></path>
                <path d="M177.5146,17.7224 L179.8556,16.3314 C178.3556,13.3994 175.3286,12.1664 172.3126,12.2444 C168.8626,12.3324 165.4076,14.3484 165.4076,18.5164 C165.4076,20.5704 166.5046,22.0584 167.7276,22.9194 C169.9616,24.4924 173.0626,24.6124 175.2476,25.6564 C176.5436,26.2764 177.1546,27.3004 177.1546,28.7424 C177.1546,31.3374 174.7566,32.7124 172.3116,32.6804 C170.0546,32.6494 167.9456,31.4964 166.5546,29.2554 L164.3456,30.7864 C165.9166,33.7384 169.0886,35.2574 172.2496,35.2854 C176.1816,35.3204 179.9796,33.1294 179.9796,28.6324 C179.9796,26.3984 179.0996,24.9604 177.7846,24.0284 C175.6186,22.4944 172.1626,22.1314 170.0276,21.1474 C168.6246,20.5014 168.2076,19.7624 168.2076,18.2054 C168.2076,16.0774 170.1846,14.8404 172.2856,14.7804 C174.3426,14.7224 176.6596,15.7924 177.5146,17.7224" id="Fill-14" fill="#000000" mask="url(#mask-2)"></path>
                <path d="M162.042,15.8298 C156.209,8.7998 142.988,12.2758 142.988,23.8308 C142.988,35.8658 156.604,38.4398 162.107,31.9348 L160.086,30.1988 C155.452,35.1768 145.795,32.7688 145.795,23.8008 C145.795,15.0058 155.661,12.2198 159.85,17.7128 L162.042,15.8298 Z" id="Fill-15" fill="#000000" mask="url(#mask-2)"></path>
                <path d="M113.4883,2.9333 C115.9523,2.9333 115.9523,6.6753 113.4883,6.6753 C111.0243,6.6753 111.0253,2.9333 113.4883,2.9333 L113.4883,2.9333 Z M112.1273,34.7903 L114.8973,34.7903 L114.8973,12.9843 L112.1273,12.9843 L112.1273,34.7903 Z" id="Fill-16" fill="#000000" mask="url(#mask-2)"></path>
            </g>
        </g>
    </g>
</svg>