<?xml version="1.0" encoding="UTF-8"?>
<svg width="122px" height="22px" viewBox="0 0 122 22" version="1.1" xmlns="http://www.w3.org/2000/svg" xmlns:xlink="http://www.w3.org/1999/xlink">
    <title>Group 9</title>
    <defs>
        <polygon id="path-1" points="0 22 122 22 122 0 0 0"></polygon>
    </defs>
    <g id="Page-1" stroke="none" stroke-width="1" fill="none" fill-rule="evenodd">
        <g id="Desktop-Copy" transform="translate(-954.000000, -312.000000)">
            <g id="Group-9" transform="translate(954.000000, 312.000000)">
                <path d="M0,7.82051445 C0,1.52581772 3.55572165,0 9.46029848,0 L19.364975,0 C26.8573137,0 27.8730349,2.73375675 27.8730349,6.93045411 L27.8730349,7.5662115 L21.3971149,7.5662115 C21.3971149,5.46821213 20.190946,5.21390918 18.0953235,5.21390918 L10.9203976,5.21390918 C7.61930388,5.21390918 6.79333284,5.97681804 6.79333284,9.6649095 L6.79333284,12.3350905 C6.79333284,16.023182 7.61930388,16.7860908 10.9203976,16.7860908 L17.9683584,16.7860908 C19.6823878,16.7860908 21.3971149,16.5317879 21.3971149,14.4973642 L21.3971149,13.8616069 L13.2064678,13.8616069 L13.2064678,9.40990791 L28,9.40990791 L28,15.5145761 C28,21.6821213 24.7623888,22 17.3970152,22 L9.46029848,22 C3.55572165,22 0,20.4741823 0,14.1794856 L0,7.82051445 Z" id="Fill-1" fill="#010202"></path>
                <polygon id="Fill-3" fill="#010202" points="29 0 52.6170772 0 52.6170772 4.84604882 35.6380293 4.84604882 35.6380293 8.26333583 51.7235908 8.26333583 51.7235908 12.612424 35.6380293 12.612424 35.6380293 15.9675909 53 15.9675909 53 21 29 21"></polygon>
                <mask id="mask-2" fill="white">
                    <use xlink:href="#path-1"></use>
                </mask>
                <g id="Clip-6"></g>
                <polygon id="Fill-5" fill="#010202" mask="url(#mask-2)" points="55 21 62 21 62 0 55 0"></polygon>
                <path d="M64,7.82051445 C64,1.52581772 67.5556331,0 73.4600628,0 L81.2061388,0 C90.5392396,0 91.7453784,2.03442363 91.6818975,8.13909178 L85.1426578,8.13909178 L85.1426578,7.50263576 C85.1426578,5.97681804 84,5.53178787 82.0313917,5.53178787 L74.8566446,5.53178787 C71.4279735,5.53178787 70.7931636,7.18475707 70.7931636,9.85563671 L70.7931636,12.1443633 C70.7931636,15.2602731 71.4279735,16.4682121 74.5392396,16.4682121 L81.5235438,16.4682121 C84.5071503,16.4682121 85.3965818,16.1503334 85.3965818,13.4801524 L92,13.4801524 L92,15.5145761 C92,19.1390918 90.6662016,22 84.063481,22 L73.4600628,22 C67.5556331,22 64,20.4741823 64,14.1794856 L64,7.82051445 Z" id="Fill-7" fill="#010202" mask="url(#mask-2)"></path>
                <path d="M99.6247454,12.1446763 C99.6247454,15.2597885 100.249657,16.4683878 103.312408,16.4683878 L111.625101,16.4683878 C114.687852,16.4683878 115.312763,15.2597885 115.312763,12.1446763 L115.312763,9.85532374 C115.312763,7.18522753 114.687852,5.53231082 111.250154,5.53231082 L103.687355,5.53231082 C100.249657,5.53231082 99.6247454,7.18522753 99.6247454,9.85532374 L99.6247454,12.1446763 Z M93,7.82096472 C93,1.52576927 96.4370116,0 102.31255,0 L112.686763,0 C118.499811,0 122,1.52576927 122,7.82096472 L122,14.1790353 C122,20.4742307 118.499811,22 112.686763,22 L102.31255,22 C96.4370116,22 93,20.4742307 93,14.1790353 L93,7.82096472 Z" id="Fill-8" fill="#010202" mask="url(#mask-2)"></path>
            </g>
        </g>
    </g>
</svg>