<?xml version="1.0" encoding="UTF-8"?>
<svg width="80px" height="32px" viewBox="0 0 80 32" version="1.1" xmlns="http://www.w3.org/2000/svg" xmlns:xlink="http://www.w3.org/1999/xlink">
    <title>Group 44</title>
    <defs>
        <polygon id="path-1" points="0.119978899 0.130526316 13.2578744 0.130526316 13.2578744 2.40173027 0.119978899 2.40173027"></polygon>
        <polygon id="path-3" points="0.518042553 0.130526316 22.8661277 0.130526316 22.8661277 2.40150643 0.518042553 2.40150643"></polygon>
        <polygon id="path-5" points="0 32 79.7761702 32 79.7761702 0.130526316 0 0.130526316"></polygon>
    </defs>
    <g id="Page-1" stroke="none" stroke-width="1" fill="none" fill-rule="evenodd">
        <g id="Desktop-Copy" transform="translate(-227.000000, -307.000000)">
            <g id="Group-44" transform="translate(227.000000, 307.000000)">
                <polygon id="Fill-1" fill="#010202" points="67.8015125 0 67 2 80 2 80 0"></polygon>
                <g id="Group-43">
                    <g id="Group-4" transform="translate(44.255319, 0.000000)">
                        <mask id="mask-2" fill="white">
                            <use xlink:href="#path-1"></use>
                        </mask>
                        <g id="Clip-3"></g>
                        <path d="M0.120851064,0.131284211 L12.4502128,0.130442105 L13.2578744,2.40075789 C13.2638298,2.39738947 0.125106383,2.40412632 0.125106383,2.40075789 C0.125106383,2.39738947 0.117446809,0.131284211 0.120851064,0.131284211" id="Fill-2" fill="#010202" mask="url(#mask-2)"></path>
                    </g>
                    <g id="Group-7" transform="translate(17.021277, 0.000000)">
                        <mask id="mask-4" fill="white">
                            <use xlink:href="#path-3"></use>
                        </mask>
                        <g id="Clip-6"></g>
                        <path d="M17.5631489,0.131284211 C19.5954894,0.324968421 21.3614468,1.0416 22.8661277,2.40075789 C22.8661277,2.40075789 0.518042553,2.40244211 0.518042553,2.40075789 L0.518042553,0.130442105 L17.5631489,0.131284211 Z" id="Fill-5" fill="#010202" mask="url(#mask-4)"></path>
                    </g>
                    <mask id="mask-6" fill="white">
                        <use xlink:href="#path-5"></use>
                    </mask>
                    <g id="Clip-9"></g>
                    <polygon id="Fill-8" fill="#010202" mask="url(#mask-6)" points="0.00170212766 2.39663158 15.5268085 2.39663158 15.5268085 0.131368421 0.00170212766 0.131368421"></polygon>
                    <path d="M79.7763404,6.64774737 L64.9746383,6.64774737 C64.9746383,6.64774737 65.7822979,4.39427368 65.7780426,4.39343158 L79.7763404,4.39343158 L79.7763404,6.64774737 Z" id="Fill-10" fill="#010202" mask="url(#mask-6)"></path>
                    <polygon id="Fill-11" fill="#010202" mask="url(#mask-6)" points="59.038383 6.65061053 44.3754043 6.65061053 44.3754043 4.39292632 58.2358298 4.39292632"></polygon>
                    <path d="M41.6280851,4.39242105 C41.9225532,5.13684211 42.2714894,5.77347368 42.2714894,6.64673684 L17.5438298,6.64673684 L17.5438298,4.39242105 L41.6280851,4.39242105 Z" id="Fill-12" fill="#010202" mask="url(#mask-6)"></path>
                    <polygon id="Fill-13" fill="#010202" mask="url(#mask-6)" points="0.00170212766 6.64673684 15.5268085 6.64673684 15.5268085 4.39242105 0.00170212766 4.39242105"></polygon>
                    <polygon id="Fill-14" fill="#010202" mask="url(#mask-6)" points="63.4615319 10.9088842 64.2742979 8.64446316 75.3874894 8.64698947 75.3874894 10.9038316"></polygon>
                    <polygon id="Fill-15" fill="#010202" mask="url(#mask-6)" points="59.7514043 8.64328421 60.560766 10.9085474 48.7471489 10.9085474 48.7471489 8.64328421"></polygon>
                    <path d="M42.4671489,8.64286316 C42.4671489,9.42012632 42.3684255,10.2293895 42.1403404,10.9089684 L35.3701277,10.9089684 L35.3701277,8.64286316 L42.4671489,8.64286316 Z" id="Fill-16" fill="#010202" mask="url(#mask-6)"></path>
                    <polygon id="Fill-17" fill="#010202" mask="url(#mask-6)" points="4.3293617 10.9086316 11.0025532 10.9086316 11.0025532 8.65431579 4.3293617 8.65431579"></polygon>
                    <polygon id="Fill-18" fill="#010202" mask="url(#mask-6)" points="22.0357447 10.9077895 28.6970213 10.9077895 28.6970213 8.64252632 22.0357447 8.64252632"></polygon>
                    <path d="M55.3091064,13.3550316 C55.3091064,13.3550316 55.3116596,15.0695579 55.3099574,15.0737684 L48.7474043,15.0737684 L48.7474043,12.8186015 L61.2529362,12.8186015 L62.0291064,14.9205053 C62.0325106,14.9213474 62.7780426,12.8135579 62.7797447,12.8186015 L75.3831489,12.8186015 L75.3831489,15.0737684 L68.8529362,15.0737684 C68.8529362,15.0695579 68.8486809,13.3550316 68.8486809,13.3550316 L68.2452766,15.0737684 L55.9125106,15.0695579 L55.3091064,13.3550316 Z" id="Fill-19" fill="#010202" mask="url(#mask-6)"></path>
                    <path d="M22.0357447,12.8184421 L41.1582979,12.8184421 L41.1582979,12.8167579 C40.7412766,13.5721263 39.9812766,14.4908632 39.2621277,15.0736 C39.2621277,15.0736 22.0348936,15.0761263 22.0348936,15.0736 C22.0348936,15.0693895 22.0357447,12.8218105 22.0357447,12.8184421" id="Fill-20" fill="#010202" mask="url(#mask-6)"></path>
                    <polygon id="Fill-21" fill="#010202" mask="url(#mask-6)" points="4.3293617 15.0728421 11.0025532 15.0728421 11.0025532 12.8176842 4.3293617 12.8176842"></polygon>
                    <polygon id="Fill-22" fill="#010202" mask="url(#mask-6)" points="68.852766 19.3237895 75.3829787 19.3237895 75.3829787 17.0694737 68.852766 17.0694737"></polygon>
                    <path d="M55.3091064,17.0692211 L48.7474029,17.0692211 L48.7474029,19.3235368 C48.744,19.3226947 55.3116596,19.3252211 55.3116596,19.3235368 C55.3116596,19.3226947 55.3184681,17.0692211 55.3091064,17.0692211" id="Fill-23" fill="#010202" mask="url(#mask-6)"></path>
                    <path d="M67.5340426,17.0692152 C67.5042553,17.0650105 66.7697872,19.3226947 66.7382979,19.3235368 L57.4370213,19.3277474 C57.4293617,19.3243789 56.6191489,17.0650105 56.6182979,17.0692152 L67.5340426,17.0692152 Z" id="Fill-24" fill="#010202" mask="url(#mask-6)"></path>
                    <path d="M22.0341277,17.0683789 L39.2290213,17.0683789 C40.0137021,17.7168 40.7234894,18.5142737 41.2784215,19.3235368 C41.3098723,19.3226947 22.0349787,19.3252211 22.0349787,19.3235368 C22.0349787,19.3226947 22.0341277,17.0700632 22.0341277,17.0683789" id="Fill-25" fill="#010202" mask="url(#mask-6)"></path>
                    <path d="M11.0014468,19.3233684 L11.0014468,17.0682105 L4.34016989,17.0682105 C4.34016989,17.0682105 4.34187234,19.3225263 4.34016989,19.3225263 C4.33846809,19.3225263 10.9980426,19.3233684 11.0014468,19.3233684" id="Fill-26" fill="#010202" mask="url(#mask-6)"></path>
                    <polygon id="Fill-27" fill="#010202" mask="url(#mask-6)" points="68.852766 23.5755789 75.3821277 23.5755789 75.3821277 21.3204211 68.852766 21.3204211"></polygon>
                    <polygon id="Fill-28" fill="#010202" mask="url(#mask-6)" points="48.747234 23.5747368 55.3089362 23.5747368 55.3089362 21.3204211 48.747234 21.3204211"></polygon>
                    <path d="M65.2110638,23.5856842 C65.212766,23.5747368 66.0161702,21.3178947 66.0289362,21.3204189 L58.1217021,21.3204189 C58.107234,21.3187368 58.9319149,23.5747368 58.9319149,23.5747368 C58.9319149,23.5747368 65.2093617,23.5949474 65.2110638,23.5856842" id="Fill-29" fill="#010202" mask="url(#mask-6)"></path>
                    <path d="M22.0349787,23.5741474 C22.0349787,23.5834105 22.0341277,21.3198316 22.0349787,21.3189895 L28.7958298,21.3189895 C28.7958298,21.3189895 28.8017872,23.5749895 28.7958298,23.5749895 C28.7898723,23.5749895 22.0349787,23.5716211 22.0349787,23.5741474" id="Fill-30" fill="#010202" mask="url(#mask-6)"></path>
                    <path d="M42.2273191,21.3192421 C42.5541277,21.9988211 42.5873191,22.8080842 42.6528511,23.5845053 L35.4894468,23.5845053 L35.4894468,21.3192421 L42.2273191,21.3192421 Z" id="Fill-31" fill="#010202" mask="url(#mask-6)"></path>
                    <polygon id="Fill-32" fill="#010202" mask="url(#mask-6)" points="4.34042553 23.5738947 11.0017021 23.5738947 11.0017021 21.3195789 4.34042553 21.3195789"></polygon>
                    <polygon id="Fill-33" fill="#010202" mask="url(#mask-6)" points="68.852766 27.7389474 79.7753191 27.7389474 79.7753191 25.4829474 68.852766 25.4829474"></polygon>
                    <polygon id="Fill-34" fill="#010202" mask="url(#mask-6)" points="44.3753191 27.7389474 55.3089362 27.7389474 55.3089362 25.4829474 44.3753191 25.4829474"></polygon>
                    <polygon id="Fill-35" fill="#010202" mask="url(#mask-6)" points="63.741617 27.7386105 60.4062979 27.7386105 59.6062979 25.4826105 64.5126809 25.4826105"></polygon>
                    <path d="M0.00117608386,25.4828632 L0.00117608386,27.7380248 L15.515234,27.7380248 C15.5220426,27.7413895 15.5084255,25.4845474 15.515234,25.4845474 C15.5220426,25.4845474 -0.0166808511,25.4828632 0.00117608386,25.4828632" id="Fill-36" fill="#010202" mask="url(#mask-6)"></path>
                    <path d="M42.3685957,25.4828632 C42.2051915,26.2272842 42.0554043,27.1333895 41.5064681,27.7388632 L41.3013617,27.7380211 L17.5430638,27.7380211 L17.5430638,25.4828632 L42.3685957,25.4828632 Z" id="Fill-37" fill="#010202" mask="url(#mask-6)"></path>
                    <polygon id="Fill-38" fill="#010202" mask="url(#mask-6)" points="62.2298723 31.9943579 61.9234894 31.9943579 61.1439149 29.7341474 63.0298723 29.7341474"></polygon>
                    <polygon id="Fill-39" fill="#010202" mask="url(#mask-6)" points="68.852766 31.9991579 79.7753191 31.9991579 79.7753191 29.7347368 68.852766 29.7347368"></polygon>
                    <path d="M17.5394043,31.9943579 L17.5394043,29.7375158 C17.5394043,29.7375158 39.9538723,29.7400421 40.0185532,29.7400421 C38.5138723,31.1648842 36.4491915,31.9682526 34.2253617,31.9994105 L17.5428085,31.9943579" id="Fill-40" fill="#010202" mask="url(#mask-6)"></path>
                    <polygon id="Fill-41" fill="#010202" mask="url(#mask-6)" points="44.3753191 31.9991579 55.3089362 31.9991579 55.3089362 29.7347368 44.3753191 29.7347368"></polygon>
                    <path d="M15.5156618,29.7444211 C15.5156618,29.7444211 15.5088511,31.9945263 15.5156618,31.9945263 C15.5224681,31.9945263 0.0050212766,32.0037895 0.00161702128,31.9987368 C-0.00263829787,31.9945263 0.0050212766,29.7376842 0.00161702128,29.7376842 C-0.00263829787,29.7376842 15.5088511,29.7511579 15.5156618,29.7444211" id="Fill-42" fill="#010202" mask="url(#mask-6)"></path>
                </g>
            </g>
        </g>
    </g>
</svg>