<?xml version="1.0" encoding="UTF-8"?>
<svg width="137px" height="33px" viewBox="0 0 137 33" version="1.1" xmlns="http://www.w3.org/2000/svg" xmlns:xlink="http://www.w3.org/1999/xlink">
    <title>JoelRivera</title>
    <g id="Page-1" stroke="none" stroke-width="1" fill="none" fill-rule="evenodd">
        <g id="Desktop-Copy" transform="translate(-573.000000, -686.000000)" fill="#000000" fill-rule="nonzero">
            <path d="M573.307,718.095 C579.676,717.27 582.58,713.277 582.58,710.703 L582.481,699.45 L582.481992,697.964008 C582.489182,693.301364 582.541,691.485 582.811,690.705 C583.075,689.913 583.603,689.484 585.484,689.451 L585.484,688.89 C584.074,688.92 582.254909,688.95 580.423421,688.955207 L579.874,688.956 C577.861,688.956 575.848,688.923 574.264,688.89 L574.264,689.451 C576.145,689.484 576.673,689.913 576.937,690.705 C577.207,691.485 577.258818,693.301364 577.266008,697.964008 L577.266946,699.061898 C577.266983,699.189392 577.267,699.31875 577.267,699.45 L577.267,708.657 C577.267,713.409 576.244,715.95 573.241,717.864 L573.307,718.095 Z M593.191836,711.33 C597.613836,711.33 601.672836,708.03 601.672836,703.311 C601.672836,698.658 597.613836,695.49 593.191836,695.49 C588.802836,695.49 584.743836,698.79 584.743836,703.509 C584.743836,708.162 588.802836,711.33 593.191836,711.33 Z M593.191836,710.604 C591.178836,710.604 590.122836,707.238 590.122836,703.113 C590.122836,698.79 591.178836,696.216 593.191836,696.216 C595.237836,696.216 596.293836,699.582 596.293836,703.707 C596.293836,708.03 595.237836,710.604 593.191836,710.604 Z M609.512672,711.33 C612.317672,711.33 615.188672,709.416 616.112672,706.578 L615.947672,706.479 C614.990672,707.601 613.901672,708.03 612.614672,708.03 C609.314672,708.03 607.136672,705.621 607.136672,701.661 C607.136672,701.43 607.136672,701.232 607.169672,701.001 L614.330672,701.001 C615.386672,701.001 615.749672,700.506 615.749672,699.681 C615.749672,697.107 613.439672,695.49 610.370672,695.49 C606.311672,695.49 602.318672,699.021 602.318672,704.07 C602.318672,708.426 605.354672,711.33 609.512672,711.33 Z M607.235672,700.341 C607.532672,698.196 608.588672,696.447 610.073672,696.447 C611.360672,696.447 611.855672,697.569 611.855672,699.351 C611.855672,699.78 611.657672,700.11 611.030672,700.143 L607.235672,700.341 Z M623.358507,711 L623.358507,710.505 L623.160507,710.472 C622.29612,710.317645 622.240353,710.16329 622.236756,708.036759 L622.236507,692.223 C622.236507,689.517 622.335507,687.273 622.401507,686.58 L622.236507,686.514 C620.784507,687.075 617.814507,687.999 616.164507,688.362 L616.164507,688.527 L617.022507,689.748 C617.378907,690.2529 617.414547,690.65088 617.418111,691.038168 L617.418259,708.036759 C617.414661,710.16329 617.358895,710.317645 616.494507,710.472 L616.296507,710.505 L616.296507,711 C616.918793,710.971714 618.050222,710.943429 619.233604,710.935924 L619.827507,710.934 L619.827507,710.934 C621.246507,710.934 622.632507,710.967 623.358507,711 Z M645.157343,711.561 C646.576343,711.561 648.424343,711.132 649.249343,710.703 L649.249343,710.505 C647.038343,710.505 645.388343,709.02 643.441343,707.007 C642.187343,705.72 640.009343,702.519 638.689343,700.143 C641.197343,699.615 643.903343,697.833 643.903343,694.731 C643.903343,690.771 640.108343,688.824 634.630343,688.824 C632.551343,688.824 630.307343,688.956 627.997343,688.956 C626.347343,688.956 624.763343,688.923 623.443343,688.89 L623.443343,689.451 C625.324343,689.484 625.951343,689.913 626.215343,690.705 C626.498843,691.524 626.541798,693.485591 626.545117,698.684978 L626.545117,701.205022 C626.541798,706.404409 626.498843,708.366 626.215343,709.185 C625.951343,709.977 625.423343,710.406 623.542343,710.439 L623.542343,711 C625.126343,710.967 627.139343,710.934 629.152343,710.934 C631.165343,710.934 633.211343,710.967 634.762343,711 L634.762343,710.439 C632.881343,710.406 632.353343,709.977 632.089343,709.185 C631.813064,708.417558 631.765233,706.593545 631.759904,701.933193 L631.759343,700.836 L631.759343,700.836 L634.762343,700.968 C635.356343,703.113 636.247343,706.314 637.897343,708.492 C639.514343,710.637 641.560343,711.561 645.157343,711.561 Z M631.759343,700.077 L631.759993,696.652492 C631.762374,693.753122 631.773486,691.801071 631.825343,690.012 C631.825343,690.012 633.046343,689.88 633.541343,689.88 C636.379343,689.88 638.326343,691.827 638.326343,694.995 C638.326343,698.031 636.346343,699.912 635.191343,699.945 L631.759343,700.077 Z M651.809179,693.312 C653.228179,693.312 654.449179,692.19 654.449179,690.639 C654.449179,689.088 653.228179,687.966 651.809179,687.966 C650.390179,687.966 649.169179,689.088 649.169179,690.639 C649.169179,692.19 650.390179,693.312 651.809179,693.312 Z M655.175179,711 L655.175179,710.505 L654.977179,710.472 C654.112792,710.317645 654.057025,710.16329 654.053427,708.036759 L654.053179,700.473 C654.053179,697.767 654.119179,696.15 654.185179,695.457 L654.020179,695.391 C652.634179,696.051 649.796179,697.14 648.146179,697.635 L648.146179,697.8 L648.839179,698.988 C649.235179,699.615 649.235179,699.978 649.235179,700.407 L649.235179,707.568 C649.235179,710.142 649.235179,710.307 648.311179,710.472 L648.113179,710.505 L648.113179,711 C648.839179,710.967 650.258179,710.934 651.644179,710.934 C653.063179,710.934 654.449179,710.967 655.175179,711 Z M663.015015,711.33 L669.153015,697.404 C669.516015,696.579 669.681015,696.315 670.638015,696.249 L670.638015,695.82 C669.945015,695.853 669.351015,695.886 668.658015,695.886 C667.998015,695.886 667.239015,695.853 666.183015,695.82 L666.183015,696.249 C667.437015,696.381 667.767015,696.579 667.767015,697.074 C667.767015,697.272 667.701015,697.536 667.569015,697.866 L664.764015,705.093 L661.827015,697.8 C661.695015,697.47 661.596015,697.206 661.596015,696.975 C661.596015,696.546 661.926015,696.381 663.114015,696.249 L663.114015,695.82 C662.058015,695.853 660.573015,695.886 659.055015,695.886 C657.537015,695.886 655.986015,695.853 654.699015,695.82 L654.699015,696.249 C655.557015,696.315 655.656015,696.612 656.019015,697.371 L662.685015,711.33 L663.015015,711.33 Z M676.266851,711.33 C679.071851,711.33 681.942851,709.416 682.866851,706.578 L682.701851,706.479 C681.744851,707.601 680.655851,708.03 679.368851,708.03 C676.068851,708.03 673.890851,705.621 673.890851,701.661 C673.890851,701.43 673.890851,701.232 673.923851,701.001 L681.084851,701.001 C682.140851,701.001 682.503851,700.506 682.503851,699.681 C682.503851,697.107 680.193851,695.49 677.124851,695.49 C673.065851,695.49 669.072851,699.021 669.072851,704.07 C669.072851,708.426 672.108851,711.33 676.266851,711.33 Z M673.989851,700.341 C674.286851,698.196 675.342851,696.447 676.827851,696.447 C678.114851,696.447 678.609851,697.569 678.609851,699.351 C678.609851,699.78 678.411851,700.11 677.784851,700.143 L673.989851,700.341 Z M691.201687,711 L691.201687,710.439 L690.112687,710.34 C689.250429,710.276129 689.191708,710.119542 689.188817,707.776654 L689.188687,699.516 C689.650687,699.153 689.980687,698.988 690.442687,698.988 C691.597687,698.988 691.960687,700.242 693.313687,700.242 C694.237687,700.242 695.491687,699.351 695.491687,697.899 C695.491687,696.414 694.600687,695.49 693.247687,695.49 C691.828687,695.49 690.607687,696.711 689.188687,699.021 C689.188687,697.569 689.254687,696.051 689.320687,695.391 L689.155687,695.325 C687.769687,695.985 684.931687,697.14 683.281687,697.635 L683.281687,697.8 L683.974687,698.988 C684.334687,699.558 684.367414,699.909818 684.370389,700.291388 L684.370438,708.036759 C684.366841,710.16329 684.311074,710.317645 683.446687,710.472 L683.248687,710.505 L683.248687,711 C684.172687,710.967 685.624687,710.934 687.109687,710.934 C688.627687,710.934 690.145687,710.967 691.201687,711 Z M705.938522,711.231 C707.786522,711.231 709.238522,709.515 709.403522,708.03 L709.304522,707.964 C709.040522,708.162 708.710522,708.36 708.215522,708.36 C707.357522,708.36 706.961522,707.931 706.961522,706.875 C706.961522,704.862 707.126522,701.166 707.126522,698.856 C707.126522,696.315 704.222522,695.49 702.341522,695.49 C698.975522,695.49 695.345522,699.285 695.345522,701.496 C695.345522,701.76 695.444522,701.859 695.576522,701.859 C696.071522,701.859 698.051522,701.463 698.513522,701.331 C698.348522,700.737 698.216522,699.912 698.216522,699.186 C698.216522,698.262 698.612522,697.8 699.569522,697.8 C701.516522,697.8 702.308522,699.054 702.308522,700.143 L702.308522,702.816 L697.886522,704.697 C696.137522,705.456 695.081522,705.951 695.081522,707.667 C695.081522,709.812 696.533522,711.198 698.579522,711.198 C700.328522,711.198 701.483522,709.746 702.242522,708.789 C702.836522,710.241 703.991522,711.231 705.938522,711.231 Z M701.648522,708.525 C700.559522,708.525 699.800522,707.832 699.800522,706.413 C699.800522,705.423 700.262522,704.895 700.889522,704.433 L702.275522,703.377 L702.242522,708.426 C702.044522,708.492 701.879522,708.525 701.648522,708.525 Z" id="JoelRivera"></path>
        </g>
    </g>
</svg>