<?xml version="1.0" encoding="UTF-8"?>
<svg width="167px" height="23px" viewBox="0 0 167 23" version="1.1" xmlns="http://www.w3.org/2000/svg" xmlns:xlink="http://www.w3.org/1999/xlink">
    <title>Group 28</title>
    <defs>
        <polygon id="path-1" points="0.324472436 0.9507 11.4213013 0.9507 11.4213013 18.9997 0.324472436 18.9997"></polygon>
    </defs>
    <g id="Page-1" stroke="none" stroke-width="1" fill="none" fill-rule="evenodd">
        <g id="Desktop-Copy" transform="translate(-558.000000, -311.000000)">
            <g id="Group-28" transform="translate(558.000000, 311.000000)">
                <g id="Group-3" transform="translate(155.224359, 4.001000)">
                    <mask id="mask-2" fill="white">
                        <use xlink:href="#path-1"></use>
                    </mask>
                    <g id="Clip-2"></g>
                    <path d="M6.19730577,10.8027 L6.16090833,11.0137 L6.12022885,10.8027 L2.44729936,0.9507 L0.346953205,0.9507 L5.13642756,13.6657 L5.13642756,13.7677 C4.84953013,14.9857 4.03272885,16.4787 3.28979295,16.9477 C2.63678013,17.3627 1.92595962,17.4147 1.37892756,17.4147 C1.11558141,17.4147 0.556773718,17.3277 0.324472436,17.2767 L0.324472436,18.8087 C0.619933974,18.8767 1.32004936,18.9997 1.75681859,18.9997 C2.77808782,18.9997 3.62700449,18.7617 4.34960064,18.2717 C5.21564551,17.6837 6.18553013,16.1577 6.64585064,14.8457 L11.4214083,0.9507 L9.32427372,0.9507 L6.19730577,10.8027 Z" id="Fill-1" fill="#231F20" mask="url(#mask-2)"></path>
                </g>
                <path d="M152.037871,10.1435 L144.833319,10.1435 C145.019588,7.5205 146.169319,6.2975 148.452723,6.2975 C150.905268,6.2975 152.029306,7.5185 152.037871,10.1435 L152.037871,10.1435 Z M154.127512,11.7295 L154.127512,10.5205 C154.127512,8.4185 153.543012,6.8705 152.435031,5.9165 C151.490838,5.1055 150.155909,4.7115 148.400268,4.7115 C147.48605,4.7115 146.657473,4.8665 145.935947,5.1675 C145.228338,5.4655 144.575326,5.9095 144.086101,6.4875 C143.115146,7.6235 142.577749,9.3095 142.577749,11.3525 C142.577749,13.6255 143.266088,15.3625 144.534646,16.5165 C145.870646,17.7355 147.585608,17.9935 148.768524,17.9935 C151.839826,17.9935 153.346037,16.4225 153.976569,15.0025 L152.253044,14.2315 C151.837685,15.0955 150.900986,16.4055 148.768524,16.4055 C147.550281,16.4055 146.530082,15.9525 145.824614,15.0935 C145.141627,14.2635 144.779794,13.1005 144.776582,11.7295 L154.127512,11.7295 Z" id="Fill-4" fill="#231F20"></path>
                <path d="M24.9050526,16.3955 C22.60345,16.3955 21.227841,14.5045 21.227841,11.3405 C21.227841,8.1755 22.60345,6.2865 24.9050526,6.2865 C27.2066551,6.2865 28.5779821,8.1755 28.5779821,11.3405 C28.5779821,14.5045 27.2066551,16.3955 24.9050526,16.3955 M29.2920141,6.6395 C28.2279244,5.3725 26.7120782,4.7005 24.9050526,4.7005 C23.0990974,4.7005 21.5821808,5.3725 20.51595,6.6395 C19.5257256,7.8215 18.9819051,9.4915 18.9819051,11.3405 C18.9819051,13.1905 19.5257256,14.8575 20.51595,16.0415 C21.5821808,17.3115 23.0990974,17.9815 24.9050526,17.9815 C26.7120782,17.9815 28.2279244,17.3115 29.2920141,16.0415 C30.2822385,14.8575 30.8292705,13.1905 30.8292705,11.3405 C30.8292705,9.4915 30.2822385,7.8215 29.2920141,6.6395" id="Fill-6" fill="#231F20"></path>
                <path d="M35.6175673,10.5351 C36.1453301,7.9031 37.6215673,6.6591 40.1736699,6.6591 L40.1736699,4.7881 C38.0015994,4.7881 36.7287596,5.5811 35.6164968,7.4421 L35.5972276,7.4661 L35.6175673,7.3031 L35.6175673,4.9851 L33.4733301,4.9851 L33.4733301,17.7771 L35.6175673,17.7771 L35.6175673,10.5351 Z" id="Fill-8" fill="#231F20"></path>
                <path d="M88.0726955,4.5615 C88.0823301,3.7115 88.3788622,3.0425 88.9526571,2.5825 C89.5360865,2.1125 90.3721571,1.8755 91.4437404,1.8755 C92.5699199,1.8755 93.5676378,2.1775 94.3330545,2.7495 C95.0342404,3.2695 95.547016,4.0265 95.7803878,4.8965 L97.7779647,4.6665 C96.9044263,1.8775 94.7580481,0.1765 91.495125,0.1765 C89.8829327,0.1765 88.4216827,0.6465 87.3854263,1.4985 C86.3802147,2.3285 85.8224776,3.4675 85.8224776,4.7075 C85.8224776,6.0725 86.4208942,7.1435 87.6530545,7.9835 C88.739625,8.7235 90.1676891,9.1955 91.5507917,9.6515 C93.9551635,10.4505 96.2289327,11.2025 96.2289327,13.2415 C96.2289327,14.1475 95.9002853,14.9075 95.2772468,15.4385 C94.5910481,16.0225 93.580484,16.3175 92.2755288,16.3175 C89.9867724,16.3175 88.3231955,15.1205 87.3875673,12.8175 L85.3493109,13.3295 C85.7892917,14.2635 86.5375801,15.6225 87.6273622,16.5305 C88.8241955,17.5325 90.3111378,18.0175 92.1706186,18.0175 C94.378016,18.0175 96.0501571,17.4775 97.1463622,16.4145 C98.2832468,15.3075 98.5219712,13.8955 98.5219712,12.9065 C98.5219712,11.4875 97.8914391,10.3755 96.5971891,9.5115 C95.463516,8.7535 93.9851378,8.2815 92.5602853,7.8255 C90.2394135,7.0825 88.0491442,6.3835 88.0726955,4.5615" id="Fill-10" fill="#231F20"></path>
                <path d="M101.911964,6.5303 L99.8544385,6.5303 L99.8544385,4.9443 L101.911964,4.9443 L101.911964,0.7593 L104.056201,0.7593 L104.056201,4.9443 L106.359945,4.9443 L106.359945,6.5303 L104.056201,6.5303 L104.056201,15.2723 C104.056201,15.8563 104.202862,16.3953 105.64056,16.3953 C105.878214,16.3953 106.123362,16.3873 106.359945,16.3743 L106.359945,17.7823 C106.359945,17.7823 105.548496,17.9813 104.937233,17.9813 C103.971631,17.9813 103.241541,17.8373 102.752317,17.5303 C102.298419,17.2403 101.911964,16.7763 101.911964,15.9873 L101.911964,6.5303 Z" id="Fill-12" fill="#231F20"></path>
                <path d="M138.861356,15.2725 C138.861356,15.8565 139.060472,16.3955 140.4971,16.3955 C140.734754,16.3955 140.97669,16.3875 141.217555,16.3745 L141.217555,17.7825 C141.217555,17.7825 140.405036,17.9815 139.793773,17.9815 C138.828171,17.9815 138.09701,17.8365 137.609927,17.5305 C137.154959,17.2405 136.71819,16.7765 136.71819,15.9875 L136.71819,0.0005 L138.863497,0.0005 L138.861356,15.2725 Z" id="Fill-14" fill="#231F20"></path>
                <path d="M71.3709827,8.2822 C72.1010724,7.5542 73.7218288,6.3272 75.2098417,6.3272 C76.698925,6.3272 77.3615724,7.0122 77.3615724,8.5462 L77.3615724,17.7822 L79.5058096,17.7822 L79.5058096,8.4972 C79.5058096,5.7292 77.3926173,4.7432 75.3928994,4.7432 C73.9969506,4.7432 72.5731686,5.4282 71.3709827,6.7002 L71.3709827,4.9892 L69.2267455,4.9892 L69.2267455,17.7822 L71.3709827,17.7822 L71.3709827,8.2822 Z" id="Fill-16" fill="#231F20"></path>
                <path d="M63.4978962,14.0576 C63.3983385,15.1766 61.1684603,16.5376 59.3400244,16.4416 C58.3326718,16.3896 57.3403064,15.6436 57.2375372,14.3996 C57.0705372,12.3216 58.7662295,11.4426 62.4991077,11.0596 C62.7592423,11.0366 63.2484667,10.9526 63.4978962,10.8176 L63.4978962,14.0576 Z M63.5107423,16.1986 C63.566409,16.9056 63.8372487,17.3156 64.4345949,17.6096 C64.9966141,17.8906 65.9236782,17.8256 66.3197679,17.7356 L66.3197679,16.3756 C65.8412487,16.3546 65.5275885,16.1466 65.5275885,15.5966 L65.5275885,9.4156 L65.5211654,8.6006 C65.5211654,7.3236 64.9773449,6.2916 63.9507231,5.6166 C63.1050179,5.0556 61.9349474,4.7476 60.6653192,4.7476 C57.6261333,4.7476 56.1745179,6.4346 55.5632551,7.4896 L57.2921333,8.3306 C57.5329987,7.7276 58.3808449,6.3326 60.6920821,6.3326 C62.5151654,6.3326 63.4358064,7.0906 63.4358064,8.5826 L63.4379474,9.0426 C63.4379474,9.0426 63.4433,9.1756 63.4004795,9.2256 C63.3330372,9.3056 63.1542615,9.3666 62.689659,9.4116 C60.1354154,9.6766 58.4397231,10.0796 57.1915051,10.8286 C55.8383769,11.6416 54.9862487,12.7766 54.9862487,14.3366 C54.9862487,15.4466 55.5643256,16.3896 56.3201077,17.0636 C57.0223641,17.6846 57.9943897,17.9986 59.0531269,18.0286 C61.3044154,18.0946 62.7913577,17.2276 63.5107423,16.1986 L63.5107423,16.1986 Z" id="Fill-18" fill="#231F20"></path>
                <path d="M116.957701,14.0576 C116.859213,15.1766 114.628265,16.5376 112.799829,16.4416 C111.793547,16.3896 110.800111,15.6436 110.698412,14.3996 C110.530342,12.3216 112.227104,11.4426 115.959983,11.0596 C116.220117,11.0366 116.709342,10.9526 116.957701,10.8176 L116.957701,14.0576 Z M116.970547,16.1986 C117.026213,16.9056 117.298124,17.3156 117.89547,17.6096 C118.457489,17.8906 119.384553,17.8256 119.779572,17.7356 L119.779572,16.3756 C119.302124,16.3546 118.988463,16.1466 118.988463,15.5966 L118.988463,9.4156 L118.979899,8.6006 C118.979899,7.3236 118.43822,6.2916 117.411598,5.6166 C116.563752,5.0556 115.395822,4.7476 114.126194,4.7476 C111.087008,4.7476 109.635393,6.4346 109.02306,7.4896 L110.753008,8.3306 C110.992803,7.7276 111.84172,6.3326 114.152957,6.3326 C115.97604,6.3326 116.895611,7.0906 116.895611,8.5826 L116.897752,9.0426 C116.897752,9.0426 116.903104,9.1756 116.860284,9.2256 C116.792842,9.3056 116.614066,9.3666 116.149463,9.4116 C113.59522,9.6766 111.900598,10.0796 110.65131,10.8286 C109.298181,11.6416 108.447124,12.7766 108.447124,14.3366 C108.447124,15.4466 109.02413,16.3896 109.780983,17.0636 C110.483239,17.6846 111.454194,17.9986 112.512931,18.0286 C114.76422,18.0946 116.252233,17.2276 116.970547,16.1986 L116.970547,16.1986 Z" id="Fill-20" fill="#231F20"></path>
                <polygon id="Fill-22" fill="#231F20" points="8.10517372 14.3574 3.56405833 0.4164 0.000321153846 0.4164 0.000321153846 17.7774 2.14455833 17.7774 2.14455833 1.8994 2.19059038 1.9584 7.28301987 17.7774 8.94980833 17.7774 14.0433083 1.9584 14.0904109 1.8994 14.0904109 17.7774 16.2346481 17.7774 16.2346481 0.4164 12.6655583 0.4164 8.128725 14.3574 8.11694936 14.4304"></polygon>
                <path d="M124.830787,8.2822 C125.559806,7.5542 127.181633,6.3272 128.670717,6.3272 C130.156588,6.3272 130.821377,7.0122 130.821377,8.5462 L130.821377,17.7822 L132.965614,17.7822 L132.965614,8.4972 C132.965614,5.7292 130.853492,4.7432 128.851633,4.7432 C127.455685,4.7432 126.031903,5.4282 124.829717,6.7002 L124.830787,6.7002 L124.829717,6.7002 L124.830787,4.9892 L122.687621,4.9892 L122.687621,17.7822 L124.830787,17.7822 L124.830787,8.2822 Z" id="Fill-24" fill="#231F20"></path>
                <path d="M50.2503,14.0576 C49.6947038,15.5316 48.12105,16.3916 46.991659,16.3916 C44.7864026,16.3916 43.2459346,15.1066 43.2459346,11.2556 C43.2459346,8.0176 44.6290372,6.3176 46.991659,6.3176 C48.2002679,6.3176 49.2483,6.8086 50.2503,7.9696 L50.2503,14.0576 Z M50.7320308,4.9756 L50.2749218,6.3256 C49.4880949,5.3696 48.4625436,4.7316 46.8342936,4.7316 C44.4181462,4.7316 40.9978577,6.2516 40.9978577,11.3546 C40.9978577,16.3096 44.4181462,17.9776 46.7293833,17.9776 C48.077159,17.9776 49.3039667,17.2866 50.1443192,16.2826 L50.2503,16.2336 L50.2503,18.6636 C50.2503,20.3696 48.6809282,21.4116 46.991659,21.4116 C45.3505628,21.4116 43.8946654,21.1196 42.7085372,20.6026 L42.7085372,22.3346 C43.7073256,22.7356 45.3323641,22.9936 46.7293833,22.9936 C50.5275628,22.9936 52.3367295,21.0346 52.3367295,18.2036 L52.3367295,4.9756 L50.7320308,4.9756 Z" id="Fill-26" fill="#231F20"></path>
            </g>
        </g>
    </g>
</svg>