<?xml version="1.0" encoding="UTF-8"?>
<svg width="136px" height="57px" viewBox="0 0 136 57" version="1.1" xmlns="http://www.w3.org/2000/svg" xmlns:xlink="http://www.w3.org/1999/xlink">
    <title>Group 41</title>
    <defs>
        <polygon id="path-1" points="0 0.4295 32.9798 0.4295 32.9798 48.8805 0 48.8805"></polygon>
        <polygon id="path-3" points="0.3626 0.0613 9.518 0.0613 9.518 13.1883 0.3626 13.1883"></polygon>
    </defs>
    <g id="Page-1" stroke="none" stroke-width="1" fill="none" fill-rule="evenodd">
        <g id="Desktop-Copy" transform="translate(-199.000000, -1051.000000)">
            <g id="Group-41" transform="translate(199.000000, 1051.000000)">
                <g id="Group-3" transform="translate(0.000000, 0.570800)">
                    <mask id="mask-2" fill="white">
                        <use xlink:href="#path-1"></use>
                    </mask>
                    <g id="Clip-2"></g>
                    <path d="M13.7138,12.5505 C18.4168,6.3215 26.7038,2.6225 32.9798,1.1025 L32.2168,0.4295 C25.2708,1.2385 15.5028,4.5525 9.3168,10.7095 C3.5478,16.4515 0.2678,22.5075 0.0238,31.4925 C0.0088,31.7875 -0.0002,32.0845 -0.0002,32.3845 C-0.0002,32.4295 0.0038,32.4745 0.0038,32.5195 C0.0038,32.5775 -0.0002,32.6335 -0.0002,32.6915 L0.0078,32.6865 C0.1508,40.7375 5.9528,47.4055 13.6068,48.8805 C11.1438,43.3535 9.3088,37.4785 8.6868,32.3625 C7.6938,24.1935 9.5268,17.8935 13.7138,12.5505" id="Fill-1" fill="#BBBBBB" mask="url(#mask-2)"></path>
                </g>
                <path d="M30.8612,42.1584 C32.5962,39.5134 33.6082,36.3534 33.6082,32.9554 C33.6082,25.8884 29.2442,19.8454 23.0672,17.3614 C21.6522,23.6434 23.6112,33.2294 30.8612,42.1584" id="Fill-4" fill="#292929"></path>
                <path d="M18.39,15.2414 C21.61,8.9424 28.136,4.5784 33.742,2.3454 L32.979,1.6734 C26.703,3.1934 18.417,6.8924 13.714,13.1214 C9.527,18.4644 7.694,24.7634 8.687,32.9334 C9.309,38.0494 11.143,43.9244 13.607,49.4514 C14.642,49.6514 15.71,49.7594 16.804,49.7594 C19.413,49.7594 21.884,49.1644 24.087,48.1024 C20.961,43.4004 18.626,38.3604 17.35,33.8034 C15.291,26.4474 15.786,20.1834 18.39,15.2414" id="Fill-6" fill="#6D6D6D"></path>
                <path d="M30.8754,42.1535 C23.6184,33.2305 21.6514,23.6475 23.0604,17.3635 C24.7924,10.9915 29.5524,5.9595 34.4864,3.0105 L33.7234,2.3385 C28.1184,4.5755 21.5974,8.9455 18.3814,15.2475 C15.7814,20.1925 15.2924,26.4565 17.3574,33.8105 C18.6364,38.3665 20.9764,43.4035 24.1064,48.1035 C26.8684,46.7705 29.2074,44.7015 30.8754,42.1535" id="Fill-8" fill="#454545"></path>
                <path d="M42.1684,25.0041 C43.7404,24.9491 44.2364,24.7001 44.4844,23.9561 C44.7334,23.2391 44.7334,21.0051 44.7334,16.6751 L44.7334,15.6831 C44.7334,11.3531 44.7334,9.1181 44.4844,8.4011 C44.2364,7.6571 43.7124,7.4091 42.0584,7.3541 L42.0584,6.9401 C43.1614,6.9681 44.5404,6.9951 45.7534,6.9951 C47.4634,6.9951 48.9254,6.9121 50.4144,6.9121 C54.9924,6.8851 58.1644,8.7051 58.1644,12.0151 C58.1644,15.7101 54.5514,17.3371 50.7454,17.3371 C50.1664,17.3371 49.8084,17.3101 49.2284,17.2271 L49.2284,16.9791 C52.8414,16.9791 54.1924,14.7451 54.1924,12.0981 C54.1924,9.3121 52.4554,7.7121 49.8904,7.7121 C49.2834,7.7121 48.4564,7.8221 48.4564,7.8221 C48.4014,9.8361 48.4014,11.9591 48.4014,15.7651 L48.4014,16.6751 C48.4014,20.3991 48.4294,23.1841 48.5944,23.7901 C48.8424,24.6181 49.3384,24.9211 51.6554,25.0041 L51.6554,25.4181 C50.0014,25.3901 48.2634,25.3621 46.6364,25.3621 C45.0094,25.3621 43.4924,25.3901 42.1684,25.4181 L42.1684,25.0041 Z" id="Fill-10" fill="#161616"></path>
                <path d="M61.8861,10.4152 C60.8651,10.4152 59.9561,9.5882 59.9561,8.4572 C59.9561,7.2992 60.8651,6.4992 61.8861,6.4992 C62.9341,6.4992 63.8161,7.2992 63.8161,8.4572 C63.8161,9.5882 62.9341,10.4152 61.8861,10.4152 L61.8861,10.4152 Z M64.5891,25.4182 C63.9821,25.3902 62.9071,25.3622 61.8311,25.3622 C60.7831,25.3622 59.6801,25.3902 59.0731,25.4182 L59.0731,25.0312 L59.3491,25.0042 C60.1491,24.8942 60.1491,24.7282 60.1491,22.5772 L60.1491,16.4542 C60.1491,16.0962 60.1211,15.7652 59.8181,15.3792 L59.1561,14.3862 L59.1561,14.2482 C60.4791,13.8352 62.3271,13.1172 63.4861,12.5112 L63.6241,12.5662 C63.5681,13.1452 63.5131,14.4142 63.5131,15.8752 L63.5131,22.5772 C63.5131,24.7282 63.5131,24.8942 64.2301,24.9772 L64.5891,25.0312 L64.5891,25.4182 Z" id="Fill-12" fill="#161616"></path>
                <path d="M75.2616,19.3224 C75.2616,15.8754 74.1576,13.2004 72.2546,13.2004 C70.3796,13.2004 69.2766,15.4624 69.2766,18.9644 C69.2766,22.3844 70.3796,25.0874 72.2546,25.0874 C74.1576,25.0874 75.2616,22.8254 75.2616,19.3224 M79.0396,19.0744 C79.0396,22.9904 75.7026,25.6934 72.2546,25.6934 C68.8356,25.6934 65.4706,23.0734 65.4706,19.2134 C65.4706,15.2964 68.8356,12.5664 72.2546,12.5664 C75.7026,12.5664 79.0396,15.2144 79.0396,19.0744" id="Fill-14" fill="#161616"></path>
                <path d="M92.8285,25.4181 C92.2215,25.3901 91.1735,25.3621 90.0985,25.3621 C89.0225,25.3621 87.9465,25.3901 87.3405,25.4181 L87.3405,25.0311 L87.6155,25.0041 C88.3885,24.8941 88.3885,24.7291 88.3885,22.5771 L88.3885,18.4681 C88.3885,16.1791 87.7815,14.6061 86.0165,14.6061 C85.6305,14.6061 85.0515,14.6891 84.4715,14.9381 L84.4715,22.5771 C84.4715,24.7291 84.4715,24.8941 85.1885,24.9771 L85.5475,25.0311 L85.5475,25.4181 C84.9405,25.3901 83.8655,25.3621 82.7895,25.3621 C81.7415,25.3621 80.6385,25.3901 80.0315,25.4181 L80.0315,25.0311 L80.3075,25.0041 C81.1075,24.8941 81.1075,24.7291 81.1075,22.5771 L81.1075,16.4541 C81.1075,16.0961 81.0795,15.7651 80.7765,15.3791 L80.1145,14.3861 L80.1145,14.2481 C81.4375,13.8351 83.2865,13.1171 84.4445,12.5111 L84.5815,12.5661 C84.5265,13.0631 84.4995,14.0001 84.4715,14.6061 C85.6305,13.6961 87.3955,12.5661 88.7745,12.5661 C90.5945,12.5661 91.7805,14.1101 91.7805,15.9851 L91.7805,22.5771 C91.7805,24.7291 91.7805,24.8941 92.4695,24.9771 L92.8285,25.0311 L92.8285,25.4181 Z" id="Fill-16" fill="#161616"></path>
                <path d="M97.1298,16.6203 L100.8258,16.4823 C101.3768,16.4543 101.5428,16.1513 101.5428,15.7653 C101.5428,14.2483 100.9908,13.3383 99.8328,13.3383 C98.5088,13.3383 97.4608,14.7453 97.1298,16.6203 M99.6118,25.6933 C96.3018,25.6933 93.6828,23.2943 93.6828,19.6263 C93.6828,15.4343 96.9098,12.5663 100.1918,12.5663 C102.5628,12.5663 104.4938,13.8353 104.4938,16.0413 C104.4938,16.6473 104.1898,17.1163 103.3628,17.1163 L97.0468,17.1163 C97.0198,17.3373 97.0198,17.5853 97.0198,17.8343 C97.0198,21.3083 98.9498,23.3773 101.7348,23.3773 C102.8938,23.3773 103.8318,22.9633 104.6868,21.9983 L104.8238,22.0813 C104.0248,24.2043 101.8458,25.6933 99.6118,25.6933" id="Fill-18" fill="#161616"></path>
                <path d="M108.9325,16.6203 L112.6285,16.4823 C113.1795,16.4543 113.3455,16.1513 113.3455,15.7653 C113.3455,14.2483 112.7935,13.3383 111.6355,13.3383 C110.3115,13.3383 109.2635,14.7453 108.9325,16.6203 M111.4145,25.6933 C108.1055,25.6933 105.4855,23.2943 105.4855,19.6263 C105.4855,15.4343 108.7125,12.5663 111.9945,12.5663 C114.3665,12.5663 116.2955,13.8353 116.2955,16.0413 C116.2955,16.6473 115.9935,17.1163 115.1645,17.1163 L108.8495,17.1163 C108.8225,17.3373 108.8225,17.5853 108.8225,17.8343 C108.8225,21.3083 110.7525,23.3773 113.5375,23.3773 C114.6975,23.3773 115.6345,22.9633 116.4895,21.9983 L116.6265,22.0813 C115.8275,24.2043 113.6485,25.6933 111.4145,25.6933" id="Fill-20" fill="#161616"></path>
                <path d="M123.5761,25.4181 C122.8051,25.3901 121.6181,25.3621 120.4321,25.3621 C119.2471,25.3621 118.0611,25.3901 117.3721,25.4181 L117.3721,25.0311 L117.6471,25.0041 C118.4471,24.8941 118.4471,24.7291 118.4471,22.5771 L118.4471,16.4541 C118.4471,16.0961 118.4201,15.7651 118.1161,15.3791 L117.4541,14.3861 L117.4541,14.2481 C118.7781,13.8351 120.6261,13.0901 121.7841,12.4831 L121.9221,12.5381 C121.8661,13.1171 121.8111,14.4141 121.8111,15.3241 L121.8111,15.6001 C122.8871,13.9171 123.9071,12.5941 125.2041,12.5941 C126.2791,12.5941 126.9411,13.3381 126.9411,14.4411 C126.9411,15.5441 126.0581,16.1791 125.2861,16.1791 C124.2381,16.1791 124.0171,15.2141 123.1361,15.2141 C122.6671,15.2141 122.2531,15.5171 121.8111,15.9581 L121.8111,22.5501 C121.8111,24.7001 121.8391,24.8661 122.5281,24.9211 L123.5761,25.0041 L123.5761,25.4181 Z" id="Fill-22" fill="#161616"></path>
                <path d="M55.9579,37.6242 L51.3799,49.7592 L51.2139,49.7592 L44.9539,34.3702 C43.9609,32.0542 43.7409,31.4752 42.0589,31.4462 L42.0589,31.0052 C43.0509,31.0332 44.5409,31.0612 46.1399,31.0612 C47.7399,31.0612 49.3949,31.0332 50.7729,31.0052 L50.7729,31.4462 C48.9529,31.4752 48.5119,31.8332 48.5119,32.5772 C48.5119,32.9642 48.6489,33.4872 48.9249,34.1492 L52.7039,44.0782 L55.4889,36.3832 L54.7999,34.4802 C53.8899,31.9982 53.5589,31.4752 52.1799,31.4462 L52.1799,31.0052 C53.1729,31.0332 54.5789,31.0612 56.0959,31.0612 C57.6399,31.0612 59.2119,31.0332 60.5909,31.0052 L60.5909,31.4462 C58.7159,31.5022 58.2199,31.8332 58.2199,32.6602 C58.2199,33.0192 58.3569,33.5152 58.5779,34.1492 L61.9429,44.1052 L65.1689,34.8112 C65.4999,33.8732 65.6929,33.1562 65.6929,32.6602 C65.6929,31.7232 65.1969,31.4752 63.0729,31.4462 L63.0729,31.0052 C64.4789,31.0332 65.5549,31.0612 66.5209,31.0612 C67.5129,31.0612 68.5619,31.0332 69.5259,31.0052 L69.5259,31.4462 C67.7889,31.4462 67.4309,31.9982 66.4649,34.3702 L60.5909,49.7592 L60.3979,49.7592 L55.9579,37.6242 Z" id="Fill-24" fill="#161616"></path>
                <path d="M73.6625,49.4836 C72.8905,49.4556 71.7045,49.4276 70.5185,49.4276 C69.3325,49.4276 68.1465,49.4556 67.4575,49.4836 L67.4575,49.0966 L67.7335,49.0696 C68.5335,48.9596 68.5335,48.7946 68.5335,46.6426 L68.5335,40.5196 C68.5335,40.1616 68.5055,39.8306 68.2025,39.4446 L67.5395,38.4516 L67.5395,38.3136 C68.8635,37.9006 70.7115,37.1556 71.8705,36.5486 L72.0085,36.6036 C71.9525,37.1826 71.8975,38.4796 71.8975,39.3896 L71.8975,39.6656 C72.9735,37.9826 73.9935,36.6596 75.2895,36.6596 C76.3655,36.6596 77.0275,37.4036 77.0275,38.5066 C77.0275,39.6096 76.1445,40.2446 75.3725,40.2446 C74.3245,40.2446 74.1035,39.2796 73.2215,39.2796 C72.7525,39.2796 72.3385,39.5826 71.8975,40.0236 L71.8975,46.6156 C71.8975,48.7656 71.9255,48.9316 72.6145,48.9866 L73.6625,49.0696 L73.6625,49.4836 Z" id="Fill-26" fill="#161616"></path>
                <path d="M80.391,34.4806 C79.37,34.4806 78.461,33.6536 78.461,32.5226 C78.461,31.3646 79.37,30.5646 80.391,30.5646 C81.439,30.5646 82.322,31.3646 82.322,32.5226 C82.322,33.6536 81.439,34.4806 80.391,34.4806 L80.391,34.4806 Z M83.094,49.4836 C82.487,49.4556 81.412,49.4276 80.336,49.4276 C79.288,49.4276 78.185,49.4556 77.578,49.4836 L77.578,49.0966 L77.854,49.0696 C78.654,48.9596 78.654,48.7936 78.654,46.6426 L78.654,40.5196 C78.654,40.1616 78.626,39.8306 78.323,39.4446 L77.661,38.4516 L77.661,38.3136 C78.984,37.9006 80.832,37.1826 81.991,36.5766 L82.128,36.6316 C82.073,37.2106 82.018,38.4796 82.018,39.9406 L82.018,46.6426 C82.018,48.7936 82.018,48.9596 82.735,49.0426 L83.094,49.0966 L83.094,49.4836 Z" id="Fill-28" fill="#161616"></path>
                <path d="M84.9135,46.9738 C84.9135,43.9118 84.9135,40.6298 84.9415,39.2798 L83.7275,38.0928 L83.7275,37.9828 C85.1345,37.0728 87.0095,35.6658 88.3055,34.3698 L88.4715,34.4528 C88.4165,34.9218 88.3055,36.3278 88.2785,37.0728 L92.6355,36.9618 C92.6355,37.3758 92.1395,38.2858 91.8635,38.5618 L88.2785,38.4798 L88.2785,46.1188 C88.2785,47.1388 89.2435,47.4428 90.4295,47.4428 C91.2565,47.4428 91.9735,47.2768 92.7465,46.7808 L92.8285,46.8908 C91.9465,48.4348 90.3185,49.7588 88.3605,49.7588 C86.3475,49.7588 84.9135,48.6558 84.9135,46.9738" id="Fill-30" fill="#161616"></path>
                <path d="M96.0824,34.4806 C95.0614,34.4806 94.1524,33.6536 94.1524,32.5226 C94.1524,31.3646 95.0614,30.5646 96.0824,30.5646 C97.1304,30.5646 98.0124,31.3646 98.0124,32.5226 C98.0124,33.6536 97.1304,34.4806 96.0824,34.4806 L96.0824,34.4806 Z M98.7854,49.4836 C98.1784,49.4556 97.1034,49.4276 96.0274,49.4276 C94.9794,49.4276 93.8754,49.4556 93.2694,49.4836 L93.2694,49.0966 L93.5454,49.0696 C94.3454,48.9596 94.3454,48.7936 94.3454,46.6426 L94.3454,40.5196 C94.3454,40.1616 94.3174,39.8306 94.0144,39.4446 L93.3524,38.4516 L93.3524,38.3136 C94.6754,37.9006 96.5234,37.1826 97.6824,36.5766 L97.8194,36.6316 C97.7644,37.2106 97.7094,38.4796 97.7094,39.9406 L97.7094,46.6426 C97.7094,48.7936 97.7094,48.9596 98.4264,49.0426 L98.7854,49.0966 L98.7854,49.4836 Z" id="Fill-32" fill="#161616"></path>
                <path d="M112.5468,49.4836 C111.9398,49.4556 110.8918,49.4276 109.8168,49.4276 C108.7408,49.4276 107.6648,49.4556 107.0588,49.4836 L107.0588,49.0966 L107.3338,49.0696 C108.1058,48.9596 108.1058,48.7946 108.1058,46.6426 L108.1058,42.5336 C108.1058,40.2446 107.4998,38.6716 105.7348,38.6716 C105.3488,38.6716 104.7688,38.7546 104.1898,39.0036 L104.1898,46.6426 C104.1898,48.7946 104.1898,48.9596 104.9068,49.0426 L105.2658,49.0966 L105.2658,49.4836 C104.6588,49.4556 103.5838,49.4276 102.5078,49.4276 C101.4598,49.4276 100.3568,49.4556 99.7498,49.4836 L99.7498,49.0966 L100.0258,49.0696 C100.8258,48.9596 100.8258,48.7946 100.8258,46.6426 L100.8258,40.5196 C100.8258,40.1616 100.7978,39.8306 100.4948,39.4446 L99.8328,38.4516 L99.8328,38.3136 C101.1558,37.9006 103.0048,37.1826 104.1628,36.5766 L104.3008,36.6316 C104.2448,37.1286 104.2178,38.0656 104.1898,38.6716 C105.3488,37.7616 107.1128,36.6316 108.4918,36.6316 C110.3128,36.6316 111.4978,38.1756 111.4978,40.0506 L111.4978,46.6426 C111.4978,48.7946 111.4978,48.9596 112.1878,49.0426 L112.5468,49.0966 L112.5468,49.4836 Z" id="Fill-34" fill="#161616"></path>
                <path d="M120.7362,41.0998 C120.7362,39.1408 120.1302,37.2108 118.7512,37.2108 C117.7302,37.2108 117.0412,38.6718 117.0412,40.9898 C117.0412,42.9188 117.7032,44.8498 119.0262,44.8498 C120.0742,44.8498 120.7362,43.3878 120.7362,41.0998 L120.7362,41.0998 Z M116.0482,50.4488 C115.8272,50.8068 115.6892,51.2208 115.6892,51.7718 C115.6892,54.0618 117.5372,55.5228 119.8812,55.5228 C122.3632,55.5228 123.7152,54.2268 123.7152,52.4898 C123.7152,50.9998 122.5012,50.4208 120.9572,50.4208 L116.0482,50.4488 Z M118.1162,56.5708 C115.2752,56.5708 113.0422,55.3578 113.0422,53.3438 C113.0422,51.8548 114.4482,50.8338 115.8822,50.3928 C114.8622,50.1178 113.8132,49.3178 113.8132,48.0488 C113.8132,46.8638 115.2202,45.7048 116.3792,44.8768 C114.7522,44.1058 113.7312,42.5888 113.7312,41.1548 C113.7312,38.3968 116.1312,36.6318 118.8332,36.6318 C119.8812,36.6318 120.8182,36.9078 121.6192,37.3758 C122.9422,37.1558 125.3412,36.7698 125.6172,36.7698 C125.9762,36.7698 126.0872,37.0178 126.0872,37.3488 C126.0872,37.7898 125.7832,38.4518 125.4792,38.7548 C124.8452,38.5898 123.7152,38.4518 122.8592,38.3968 C123.5492,39.1688 123.9632,40.1338 123.9632,41.0438 C123.9632,43.7748 121.5072,45.4288 118.8332,45.4288 C118.0342,45.4288 117.2892,45.2638 116.6272,44.9878 C116.3242,45.3738 116.1312,45.6768 116.1312,46.0908 C116.1312,46.7258 116.5722,47.1118 117.2892,47.1118 L122.3902,47.0838 C124.4312,47.0838 126.0872,48.4908 126.0872,50.3658 C126.0872,53.9508 122.4462,56.5708 118.1162,56.5708 L118.1162,56.5708 Z" id="Fill-36" fill="#161616"></path>
                <g id="Group-40" transform="translate(126.000000, 36.570800)">
                    <mask id="mask-4" fill="white">
                        <use xlink:href="#path-3"></use>
                    </mask>
                    <g id="Clip-39"></g>
                    <path d="M0.5546,12.1403 L0.3626,9.0243 L0.5546,8.9683 C1.2436,11.4513 2.8166,12.4153 4.2506,12.4153 C5.7116,12.4153 6.5946,11.6163 6.5946,10.3473 C6.5946,7.6173 0.8586,8.3063 0.8586,4.1153 C0.8586,1.8263 2.8996,0.0613 5.5746,0.0613 C6.8986,0.0613 7.9736,0.4743 8.7736,0.9983 L8.9396,3.4803 L8.7736,3.5083 C8.1946,1.8263 7.1186,0.8323 5.5466,0.8323 C4.3886,0.8323 3.5336,1.5493 3.5336,2.6533 C3.5336,5.1903 9.5186,4.7773 9.5186,8.8863 C9.5186,11.4233 7.1466,13.1883 4.4436,13.1883 C3.0646,13.1883 1.3826,12.7463 0.5546,12.1403" id="Fill-38" fill="#161616" mask="url(#mask-4)"></path>
                </g>
            </g>
        </g>
    </g>
</svg>