<?xml version="1.0" encoding="UTF-8"?>
<svg width="106px" height="107px" viewBox="0 0 106 107" version="1.1" xmlns="http://www.w3.org/2000/svg" xmlns:xlink="http://www.w3.org/1999/xlink">
    <title>Group 6</title>
    <defs>
        <polygon id="path-1" points="0.000252380952 0.356921429 105.106571 0.356921429 105.106571 107 0.000252380952 107"></polygon>
    </defs>
    <g id="Page-1" stroke="none" stroke-width="1" fill="none" fill-rule="evenodd">
        <g id="Desktop-Copy" transform="translate(-962.000000, -649.000000)">
            <g id="Group-6" transform="translate(962.000000, 649.000000)">
                <g id="Group-3">
                    <mask id="mask-2" fill="white">
                        <use xlink:href="#path-1"></use>
                    </mask>
                    <g id="Clip-2"></g>
                    <path d="M105.106824,53.6785881 C105.106824,83.1290643 81.5798714,107.000255 52.5535381,107.000255 C23.5297286,107.000255 0.000252380952,83.1290643 0.000252380952,53.6785881 C0.000252380952,24.2306595 23.5297286,0.356921429 52.5535381,0.356921429 C81.5798714,0.356921429 105.106824,24.2306595 105.106824,53.6785881" id="Fill-1" fill="#FFFFFF" mask="url(#mask-2)"></path>
                </g>
                <path d="M49.8158055,46.9942215 C49.8916017,47.3131165 49.6212618,47.7901834 50.0507738,47.9509065 C51.3089911,47.67283 53.5879309,48.6269639 54.2928358,47.1166772 C53.8026869,46.5605243 53.0017734,46.3079595 52.1604353,46.3079595 C51.3190972,46.3079595 50.4449141,46.555422 49.8158055,46.9942215 L49.8158055,46.9942215 Z M47.6884581,50.2112342 L47.8021524,50.9281101 C49.3408158,51.9613299 49.8132789,53.716528 51.9431528,53.5558049 C53.8304788,53.6706071 55.2453417,51.8847951 56.1852149,50.4535944 C53.6334086,50.0989831 50.5232369,50.6500337 47.6884581,50.2112342 L47.6884581,50.2112342 Z M89.7124116,44.6088869 C93.7245585,45.6803741 97.7468115,50.0938808 101.9914,47.2314794 C98.2925443,41.0347118 92.7897384,35.3099089 94.3208221,27.2074249 C94.4825207,26.6538232 94.1262785,26.092568 93.6184437,26.013482 C91.21823,27.0058833 89.3586959,29.3912178 88.4087166,31.738285 C88.0196293,33.1235648 87.7871875,34.6006864 87.2389282,35.9094315 C84.3662512,34.3991448 81.2965041,32.934779 77.7947186,33.2868391 C76.5314481,33.4475621 74.7224449,33.5317504 74.4900032,34.8404955 C78.4642519,36.9834698 81.7310692,40.5627472 84.1666545,44.3741802 C85.86449,44.0961038 87.9438331,44.3333617 89.7124116,44.6088869 L89.7124116,44.6088869 Z M76.2611083,21.7198798 C73.3454802,21.5642591 70.9098948,23.2352689 68.2317615,23.987861 C67.9993198,21.6918171 69.7300002,19.2605617 70.1241406,16.9543131 C65.7961762,17.2349407 62.3701868,19.8651866 58.7900785,21.9647912 C57.9638996,19.9442725 57.1326677,17.9135492 56.3064888,15.8828259 L61.0285936,11.354517 L61.1498676,10.7549944 L54.7728786,10.397832 C53.6738333,8.4538481 53.2392683,6.11443442 51.9431528,4.32352014 C50.8820057,6.3516923 50.1669946,8.49721782 49.1058475,10.5202877 L42.7339115,10.8800012 L42.7339115,11.354517 L47.5697107,15.7603702 C46.9785001,18.0283514 46.4302408,20.4902207 44.9749532,22.2020491 C42.142701,20.4876696 39.3483468,18.6227717 36.2432281,17.4339311 C35.4953721,17.1890198 34.4316984,16.79359 33.7621651,17.3114754 C34.7449894,19.4978195 36.1194276,21.849989 35.8869859,24.2353236 C34.5883439,23.9929634 33.5676214,23.1510806 32.3473022,22.7990205 C30.8869616,22.3959372 29.1562811,21.61018 27.7388917,22.0872469 C30.1012074,25.4241641 32.0264315,28.9167021 32.6959648,32.9296767 C40.5282414,29.1105902 49.6616865,27.0109856 59.1463207,28.643728 C63.5930326,29.3555016 67.6784491,31.1846833 71.6552244,32.6924188 C71.8093433,28.4830049 74.447052,25.1001668 76.2611083,21.7198798 L76.2611083,21.7198798 Z M59.1286349,38.5192681 C58.9719894,38.5243704 58.820397,38.5320239 58.666278,38.5371262 C57.8426257,39.090728 55.4424119,38.692747 56.3064888,40.5601961 C57.802201,39.3662532 59.8891237,40.2030337 61.3848359,40.797454 C61.9381483,40.5193775 61.8168744,39.9657758 61.8547725,39.4836066 C61.3722032,38.5830471 60.2251537,38.4963077 59.1286349,38.5192681 L59.1286349,38.5192681 Z M61.4985302,34.6032376 C60.3969584,32.1388171 57.8805238,31.1413135 55.5940043,30.5443421 C54.4747467,30.4065795 53.312538,30.3121866 52.1604353,30.3019819 C51.9431528,30.2994308 51.7283969,30.2968796 51.5136409,30.3019819 C48.2872483,30.3657609 45.2048684,31.2025414 43.3225955,33.8838105 C43.0522557,34.6389538 41.8647815,35.7027875 42.9663533,36.3813961 C45.4474164,36.220673 48.2746156,35.9068803 49.9269733,38.0575082 C49.9269733,39.9657758 51.1472925,42.50418 49.1033209,43.4200464 C47.408012,41.8357761 45.4019386,44.0935526 43.5550373,42.8205238 C42.6909603,42.3051895 42.142701,42.9072632 41.7864587,43.6624066 C41.2735709,48.5886965 43.8279037,54.0252183 48.393363,56.7651641 C50.2402643,57.4386703 52.7263805,58.0790115 54.6566577,57.1223265 C59.3004397,54.9410847 61.2256638,49.9382601 62.0872142,45.328314 C61.9735199,44.450715 62.0139446,42.7414378 60.7961519,42.6980681 C59.4191871,43.5782183 57.4105872,43.0603328 55.9527731,42.6980681 C55.0886962,42.9812469 55.050798,44.2542757 54.0705002,44.4966359 L53.4691835,44.0144667 C52.9588222,41.8332249 52.6404781,38.7335656 54.6516046,37.2232789 C56.8951728,36.3099636 59.5328815,35.9094315 61.8547725,36.6263074 C62.2893375,35.8711641 61.6198042,35.279295 61.4985302,34.6032376 L61.4985302,34.6032376 Z M42.2563953,39.7208645 C42.1805991,40.2361988 42.2942934,41.1520652 43.0800476,40.797454 C44.3028934,39.0881768 46.4656123,40.4402916 47.8021524,40.5601961 L47.8021524,40.080578 C47.0694556,38.9172491 45.5585842,38.3330334 44.0275004,38.389159 C43.6712582,38.4044659 43.3150159,38.4554891 42.9688798,38.5371262 C42.455992,38.6519284 42.0972232,39.1264442 42.2563953,39.7208645 L42.2563953,39.7208645 Z M29.7424386,34.3557751 C25.6494425,31.6540967 20.4599276,34.1976032 16.644851,35.6721736 C16.2911352,32.0546288 14.8358477,28.7585302 11.8039987,26.3731956 C11.5083935,26.2252283 11.1016204,25.916538 10.735272,25.8935775 C10.5154629,25.8782706 10.3082866,25.9675612 10.1440614,26.2507399 C11.5210262,34.7920234 6.02327333,40.7515331 2.12482083,47.2314794 C3.42346282,48.3004154 5.50533246,48.1422435 7.07936739,47.8258996 C11.2102616,46.157441 15.1466122,43.2567722 20.0657872,44.2517245 C21.5185482,41.7464855 23.9642397,39.3228835 25.9677866,37.3380811 C27.1906324,36.2665939 28.8733086,35.5879853 29.7424386,34.3557751 L29.7424386,34.3557751 Z M103.883779,56.4717807 C103.924204,57.816242 104.050531,58.9719175 103.530063,60.3469927 C98.1384253,61.8955468 94.5987416,56.1324764 89.363749,57.002422 L89.9574861,59.9898303 C94.7983383,60.1505534 97.8200811,64.8370342 102.820105,64.6354925 C102.107621,66.0666933 103.135923,69.84241 99.9878532,68.3321233 C96.7210359,67.5412637 94.3612468,64.6354925 90.7811384,64.6354925 C90.3490999,65.4365568 90.6219663,66.5437602 90.5461701,67.4927917 C94.3233486,68.0897631 97.0368535,71.3144293 100.816559,71.9062984 C100.460316,73.2175946 100.106601,74.6845116 99.0429269,75.4830247 C95.9731798,74.7304325 93.572966,71.9445658 90.3036222,72.0236518 L89.7225178,74.7661487 C92.8276365,74.8452347 94.8362364,77.6208967 97.6305906,78.4576772 C97.7063868,79.6133526 96.6831378,80.6465724 96.0919272,81.6797922 C93.6133907,80.9272 91.7235381,78.7765722 88.8912859,78.9372952 C88.8508612,77.8581546 89.4824964,76.636149 89.242475,75.4830247 C86.0640867,76.4397096 83.9291597,73.4548525 81.5718971,71.6613871 C81.5036805,65.8039238 75.3945048,61.9593258 75.0736341,56.4717807 C75.0129971,55.3773331 75.1746957,54.2089018 75.6698977,52.9537311 C77.6759711,48.2672503 77.0468625,42.1801827 74.8462454,37.8100457 C74.1792386,36.6594725 72.9917644,35.7512596 71.8851396,35.0777534 C73.5021257,38.5345751 75.4728275,42.6215333 74.4900032,46.8717658 C74.3763088,50.1551087 72.4586643,53.3083424 72.4359255,56.4717807 C72.4283458,57.5993934 72.6658407,58.7295573 73.3101086,59.8673746 C75.8694944,64.5232415 80.4728518,68.9290947 78.7421714,74.7635976 C78.2671817,76.557063 76.8472657,77.944894 76.4960766,79.7689734 C79.4875009,82.2742125 82.3197532,85.0957954 86.2940019,85.2539673 C87.7088648,84.340652 86.9231106,80.2919612 89.8336856,82.1619614 L94.0858538,84.3074869 C93.7750893,85.4580601 92.8225834,86.4861775 91.961033,87.2795883 C90.3465734,86.4861775 88.775065,85.5345949 86.7614119,85.6111297 C86.1702014,86.2489197 85.6598401,86.9632444 85.7027913,87.8740085 C87.1201807,88.1087153 88.4162962,88.710789 89.5987173,89.5475695 C89.0504579,90.7415123 87.9792046,91.4890022 86.9989068,92.4048686 L83.6992445,91.2134769 C83.145932,92.0094388 82.0039356,92.8462193 82.403129,93.718716 C83.1484586,94.0401621 83.977164,94.4764105 84.5228968,95.0325634 C83.0676093,96.621936 81.2232345,97.6449512 79.4470763,98.7240918 C77.9159925,93.6727951 72.8780701,90.1368874 73.3101086,84.2998335 L73.0751403,84.0625756 C71.8901926,85.4070369 72.2893861,87.5576647 72.3651823,89.3026581 C73.7800452,92.9584703 77.1630834,95.7851556 77.6759711,99.7930278 C77.0847606,100.823696 75.750747,101.03034 74.7249715,101.466589 C74.8437189,94.2391526 63.9821199,88.7567099 70.9477929,81.4425343 C73.2696839,77.8632569 77.1605568,74.4447026 75.7810655,69.5158615 C74.3687292,64.7553971 69.3611253,61.8088073 69.4040765,56.4717807 L69.4141826,56.0559416 C70.5536526,50.4918618 74.01754,44.5706195 71.1827612,38.6519284 C70.3944805,36.2716962 68.6284284,33.5649155 66.2282147,32.5699631 C69.808323,36.7053934 71.2257124,43.4557626 69.1792143,49.0198425 C68.1458591,51.2342493 66.7259432,53.8695976 66.5844569,56.4717807 L66.5743508,56.4717807 C66.5010811,57.831549 66.7739475,59.1836637 67.6430775,60.464346 C70.3591089,64.9161201 75.0786872,69.8066938 72.3651823,75.6080315 C69.2954352,80.2562449 63.9442218,84.9809932 66.930593,91.103777 C69.0958385,94.7570381 72.4435051,98.4051968 71.54153,102.897789 L67.9993198,104.08663 C70.3616354,95.7060696 58.7900785,90.7823309 63.6334572,82.3966681 C66.622355,77.9091778 71.9735685,73.6946615 68.944246,67.737703 C67.1327163,64.0461746 63.3959624,61.8623817 63.5121833,57.2473333 L63.6435634,56.4717807 C64.8613561,49.9280554 69.7855841,43.7363902 66.341909,36.7411096 C65.4374074,34.6772212 63.6284041,32.5725143 61.6198042,31.3811226 L61.4985302,31.5035783 C65.5157301,35.4349157 66.7360494,41.9072085 64.5708039,47.1090237 C63.5601875,50.1627621 61.3418847,53.2037448 60.894687,56.4743319 C60.679931,58.0152325 60.8593154,59.6148098 61.7436047,61.2985753 C64.2979375,65.3855336 68.785074,69.7250567 65.9856667,75.0110601 C63.0371936,79.3786459 58.1180186,83.6263272 60.0836674,89.3052093 C62.2489129,94.2748689 66.7688944,99.0072706 64.328256,105.165771 L60.6748779,106 C63.5829264,99.9971206 59.2195904,94.0401621 56.6627311,88.8332447 C53.5525593,81.3608972 63.342905,77.7867221 63.5020771,70.9547157 C63.464179,66.5488625 58.8229235,64.0461746 57.8451522,59.9923814 C55.8365522,58.2805531 53.7546826,60.6735411 51.3519423,60.2296393 C49.5783106,60.5893529 46.8572261,57.7652188 45.7986055,60.8266107 C44.5378617,65.3141011 38.7975609,68.6127509 41.3190487,73.9344706 C43.721789,78.6668723 49.4974613,82.123694 47.5671841,88.2439267 C45.8415567,93.9636273 40.1315745,99.4052515 43.6712582,106 C42.2159707,105.525484 39.5024658,106.433697 39.5428905,104.089181 C37.2993222,96.1040505 46.8597527,91.4507348 43.9062265,83.4681553 C42.5317883,78.5801328 36.2710201,75.8810056 37.6505114,70.0005819 C38.6687073,65.1610315 44.0477128,61.7756422 43.292277,56.4743319 C43.2316401,56.03043 43.1255254,55.5763236 42.9688798,55.1018078 C40.9602799,49.3821072 36.8647572,43.6573043 39.3079222,36.9809187 C39.9749289,35.072651 41.3165221,33.4424598 42.4938901,31.7408361 C38.5979642,33.8455431 36.6297889,38.2973172 36.7106382,42.8256261 C36.54136,47.7493648 40.1442072,51.9664322 40.657095,56.4743319 C40.8592182,58.2933089 40.563613,60.1556557 39.3079222,62.1302535 C36.7510628,65.6304449 33.4084493,69.3219734 34.9420596,73.9344706 C36.3973471,78.582684 42.142701,81.4017157 41.7889853,86.8076237 C41.7510871,93.2033817 34.3912737,97.1831912 36.4781964,104.334093 L32.8147122,103.132496 C31.3594247,96.7801079 38.0497048,93.5299302 38.1255011,87.6495065 C39.0704273,80.8889326 30.5307193,78.3785912 31.0436071,71.7863939 C31.0082356,66.7784669 35.3740981,63.6073751 37.3018487,59.39541 C37.6328256,58.3698437 37.7414669,57.4029541 37.6985157,56.4743319 C37.4610208,51.8159138 33.3048612,48.1754085 33.9946068,42.9378772 C34.2270486,39.0856256 35.5256905,35.7078899 38.0042271,32.807221 C34.5832908,34.195052 33.1709545,38.1723104 32.2260282,41.5117787 C30.5863032,46.8641123 34.499915,51.6781512 34.8915288,56.4743319 C35.0683867,58.5917946 34.5529723,60.6965016 32.5822705,62.8496806 C29.7474917,66.222314 26.8722882,70.4802 28.9187863,75.0110601 C31.0840318,80.0138847 37.8930593,83.9069548 34.9420596,90.1470921 C33.3301266,94.0809807 29.4720987,97.0581844 29.6312708,101.706398 C28.6080218,101.267598 27.5494012,100.83135 26.6802711,100.037939 C26.6802711,94.1192481 35.0178558,90.4251685 31.0436071,84.1875824 C30.6924179,85.4172415 30.6166217,87.0882513 30.3412288,88.4786335 C28.9617375,92.0961783 26.0132643,94.994296 24.909166,98.7317453 C23.0622647,98.0148694 21.1319875,96.5020315 19.5983772,94.9126589 L21.723198,93.5988115 C21.4882297,92.8028496 20.8591211,92.1267922 20.3083352,91.4507348 C18.9288439,91.2568466 18.0218157,92.1701619 16.8823458,92.5298755 C15.8995214,91.6522764 14.9495421,90.8588657 14.1663144,89.7873785 C14.8712193,87.7566552 20.3891845,89.4353184 17.5948303,86.0984012 C15.7075043,84.9044584 13.8125987,86.606082 12.160241,87.3994928 L9.91919928,84.5447448 C11.8494765,83.3533531 13.772174,81.6823433 16.1698613,82.1619614 C16.7610718,83.2359998 16.8014965,84.8177189 17.9409664,85.376423 C21.9935379,85.297337 24.8662148,82.2002288 27.97386,79.7766269 C25.8086145,76.5238979 24.045089,72.0313052 25.9703131,68.0948654 C27.5089765,64.1533233 31.5261764,60.8317131 31.7080874,56.4717807 C31.7510386,55.4793795 31.5969196,54.4359551 31.1674076,53.3134447 C29.0425868,47.7901834 28.2922042,40.3229382 32.3473022,35.4349157 C30.141632,36.0318872 28.8429901,38.8075492 28.095134,40.9122562 C25.6570221,46.3054083 28.7394019,51.3031306 28.8455166,56.4717807 C28.8606758,57.4004029 28.7874062,58.3315763 28.562544,59.2704032 C26.4781479,63.5231868 23.0976362,67.2529827 22.5493769,72.1435563 C20.1466365,73.6895592 18.1759347,76.3963399 14.7549984,75.4830247 C14.6337245,76.3963399 14.911644,77.7867221 15.224935,78.8199419 C12.5114302,78.7051397 10.6594757,80.7231072 8.37548284,81.677241 C7.1602167,81.2843624 6.84187256,79.6949897 6.37193596,78.582684 C9.04501616,77.6719199 10.9727668,74.9651392 14.0450404,75.0085089 C14.3987562,74.0084542 13.8454437,73.0951389 13.6887982,72.1435563 C9.86866846,70.431728 3.81507665,80.6032027 3.30724194,71.7838427 C7.12484513,71.5465849 9.56043048,67.9698586 13.3401356,67.6126962 L13.4538299,64.7553971 C9.16629011,64.3191487 6.40478099,68.7709228 2.11976775,68.3321233 L1.17484148,64.5206904 C6.13191458,64.8319319 9.08796735,60.3444415 13.8100722,60.1046325 C14.4366543,59.2704032 14.5124505,58.0381929 14.6337245,56.8876198 C9.47958118,56.2090112 5.94242402,61.979735 0.469936594,60.2270882 C0.469936594,60.2270882 0.282972572,57.8264466 0.179384399,56.4717807 L0.186964021,56.4717807 C0.149065909,55.9411394 0.113694337,55.5737724 0.113694337,55.5737724 C4.99244467,57.4845912 9.27998445,53.9461324 13.4538299,52.1195018 C14.514977,51.7980557 16.1723878,52.3567597 16.6473775,51.165368 C16.6044263,50.2495016 18.256784,49.1831167 16.8823458,48.5453267 C10.7807497,47.7085463 6.72565168,55.1400752 0.469936594,51.7597883 L0,50.8056545 C1.30116853,32.8480396 11.3315356,15.4873961 27.9713335,6.94611257 C34.7121444,3.05559364 43.0876272,1.07334236 51.5338532,1.00190988 C61.7233924,0.917721602 72.0215728,3.61684883 79.6820446,9.09418925 C87.1227073,13.699033 94.2374463,21.2938361 98.0980006,29.0034415 C101.791803,35.7563619 103.492165,43.3358581 104,51.4026259 C97.5472147,56.3289157 93.2167238,46.7646171 86.6426645,48.9050403 C86.9989068,49.9382601 87.1934504,51.0097472 87.9438331,51.8847951 C93.7675097,51.8414254 97.7796565,57.9999255 103.876199,55.5737724 L103.883779,56.4717807 Z M51.7031315,19.457001 C53.5550859,20.5335905 55.5207346,21.9214215 57.0164468,23.3934408 L56.4277628,23.987861 C53.4767631,23.6715172 50.3691179,24.066947 47.5697107,24.1103167 C47.2589461,23.7914217 46.6298375,23.3143548 47.2185215,22.9163739 L51.7031315,19.457001 Z" id="Fill-4" fill="#000000"></path>
            </g>
        </g>
    </g>
</svg>