<?xml version="1.0" encoding="UTF-8"?>
<svg width="106px" height="64px" viewBox="0 0 106 64" version="1.1" xmlns="http://www.w3.org/2000/svg" xmlns:xlink="http://www.w3.org/1999/xlink">
    <title>Group 10</title>
    <defs>
        <filter id="filter-1">
            <feColorMatrix in="SourceGraphic" type="matrix" values="0 0 0 0 1.000000 0 0 0 0 1.000000 0 0 0 0 1.000000 0 0 0 1.000000 0"></feColorMatrix>
        </filter>
        <polygon id="path-2" points="0.450239344 0.329121311 16.0850656 0.329121311 16.0850656 22.932318 0.450239344 22.932318"></polygon>
        <polygon id="path-4" points="0 50.3934426 77.7735902 50.3934426 77.7735902 0.325819672 0 0.325819672"></polygon>
    </defs>
    <g id="Page-1" stroke="none" stroke-width="1" fill="none" fill-rule="evenodd">
        <g id="Desktop-Copy" transform="translate(-214.000000, -669.000000)">
            <g id="Group-10" transform="translate(214.000000, 669.000000)">
                <rect id="Rectangle" fill="#000000" x="0" y="0" width="106" height="63.4262295"></rect>
                <g filter="url(#filter-1)" id="Group-31">
                    <g transform="translate(10.426230, 6.081967)">
                        <polygon id="Fill-1" fill="#0F6DFF" points="23.8925738 50.4490492 28.0561148 50.4490492 28.0561148 28.6165246 23.8925738 28.6165246"></polygon>
                        <polygon id="Fill-2" fill="#0F6DFF" points="30.1440541 47.0719934 30.1440541 50.4500918 30.1440541 50.449223 37.8924803 50.449223 37.8924803 47.0719934"></polygon>
                        <polygon id="Fill-3" fill="#0F6DFF" points="30.1439672 41.0654426 37.5431148 41.0654426 37.5431148 37.6873443 30.1439672 37.6873443"></polygon>
                        <polygon id="Fill-4" fill="#0F6DFF" points="30.1439672 31.994623 37.8923934 31.994623 37.8923934 28.6165246 30.1439672 28.6165246"></polygon>
                        <polygon id="Fill-5" fill="#0F6DFF" points="0.55832459 23.3236492 4.69145574 23.3236492 8.30501311 8.73996066 8.30588197 8.73996066 6.53776721 2.04805902"></polygon>
                        <polygon id="Fill-6" fill="#0F6DFF" points="12.3914869 1.49077705 18.5586016 23.3233016 14.2073885 23.3233016 12.6738639 17.7869738 8.18450328 17.7869738 9.01338852 14.4401541 11.9848639 14.4401541 10.0299459 7.21303934 8.51814262 1.49077705"></polygon>
                        <g id="Group-30" transform="translate(0.000000, 0.543033)">
                            <path d="M34.1285246,17.0232525 C33.6437049,18.2883016 32.9234262,19.2327443 31.5680164,19.5238098 L31.5680164,22.9470885 C35.4170328,22.6386459 37.3893279,20.294482 38.2799016,17.1040557 L37.9914426,17.0232525 L34.1285246,17.0232525 Z" id="Fill-7" fill="#0F6DFF"></path>
                            <path d="M29.4715623,22.9159836 L29.4715623,19.4727213 C27.4306279,18.9079672 26.5695951,16.7427869 26.5695951,13.5219508 L26.5695951,9.75113115 C26.5695951,6.53029508 27.4306279,4.3642459 29.4715623,3.7994918 L29.4715623,0.357098361 C24.4956443,0.906213115 22.1341033,4.93247541 22.1341033,11.636541 C22.1341033,18.3397377 24.4956443,22.3668689 29.4706934,22.9159836 L29.4715623,22.9159836 Z" id="Fill-9" fill="#0F6DFF"></path>
                            <path d="M38.2704311,6.13418525 L34.0843,6.13418525 C33.5994803,4.92734918 32.882677,4.0315623 31.5681033,3.74918525 L31.5681033,0.325906557 C35.4040869,0.632611475 37.3746443,2.96200492 38.2704311,6.13418525" id="Fill-11" fill="#0F6DFF"></path>
                            <path d="M68.558541,19.5491803 C66.7817377,19.3076393 65.1891311,18.4344426 63.7980984,16.8531311 L61.2766885,19.4301475 C62.8275902,21.3902787 65.2386557,22.7422131 68.558541,22.9516066 L68.558541,19.5491803 Z" id="Fill-13" fill="#0F6DFF"></path>
                            <g id="Group-17" transform="translate(61.688525, 0.000000)">
                                <mask id="mask-3" fill="white">
                                    <use xlink:href="#path-2"></use>
                                </mask>
                                <g id="Clip-16"></g>
                                <path d="M10.3734033,9.90735082 L8.04314098,9.49899016 C5.58689508,9.09062951 4.66156721,8.2739082 4.66156721,6.60831803 C4.66156721,4.97835082 5.53302623,4.00871148 7.2186,3.73502295 L7.2186,0.329121311 C2.99250164,0.647121311 0.450239344,2.92699016 0.450239344,6.79685902 C0.450239344,9.84479344 2.04545246,12.2966951 6.1603377,12.9874328 L8.52274754,13.3645148 C10.9477148,13.7415967 11.8730426,14.5895967 11.8730426,16.3186131 C11.8730426,18.1136623 10.8512721,19.2466459 8.9676,19.5411869 L8.9676,22.932318 C13.6029279,22.5413344 16.0852393,19.8131377 16.0852393,16.0353672 C16.0852393,12.7676131 14.2024361,10.5989574 10.3734033,9.90735082" id="Fill-15" fill="#0F6DFF" mask="url(#mask-3)"></path>
                            </g>
                            <path d="M71.0047082,0.329208197 C73.950118,0.540339344 76.1448393,1.64899508 77.5184951,3.33978197 L75.0613803,5.91679836 C74.0665443,4.75253607 72.7337246,3.94450328 71.0047082,3.71860164 L71.0047082,0.329208197 Z" id="Fill-18" fill="#0F6DFF"></path>
                            <polygon id="Fill-20" fill="#0F6DFF" points="52.4898098 4.06258033 59.1912689 4.06258033 59.1912689 0.668842623 41.641318 0.668842623 41.641318 4.06258033"></polygon>
                            <mask id="mask-5" fill="white">
                                <use xlink:href="#path-4"></use>
                            </mask>
                            <g id="Clip-23"></g>
                            <polygon id="Fill-22" fill="#0F6DFF" mask="url(#mask-5)" points="48.3429508 22.6040656 52.4899836 22.6040656 52.4899836 6.13409836 48.3429508 6.13409836"></polygon>
                            <path d="M51.2281492,27.7620951 L51.2281492,31.1775541 C52.6044115,31.4477672 53.3394607,32.3774393 53.8312311,33.6338 L57.9217885,33.6338 L58.0060672,33.6094721 C57.1094115,30.4016689 55.1206082,28.0488164 51.2281492,27.7620951" id="Fill-24" fill="#0F6DFF" mask="url(#mask-5)"></path>
                            <path d="M53.831318,44.5223459 C53.3395475,45.7778377 52.6044984,46.7092475 51.2282361,46.9785918 L51.2282361,50.393182 C55.1206951,50.1073295 57.1086295,47.754477 58.0061541,44.5458049 L57.9218754,44.5223459 L53.831318,44.5223459 Z" id="Fill-25" fill="#0F6DFF" mask="url(#mask-5)"></path>
                            <path d="M49.1306525,50.3506082 C44.1990459,49.774559 41.8592262,45.752641 41.8592262,39.0772475 C41.8592262,32.4035918 44.1990459,28.3816738 49.1306525,27.8056246 L49.1306525,31.260182 C47.1366361,31.8510016 46.2938492,34.0057557 46.2938492,37.1918377 L46.2938492,40.9626574 C46.2938492,44.1496082 47.1366361,46.3052311 49.1306525,46.895182 L49.1306525,50.3506082 Z" id="Fill-26" fill="#0F6DFF" mask="url(#mask-5)"></path>
                            <polygon id="Fill-27" fill="#0F6DFF" mask="url(#mask-5)" points="12.467859 28.1099836 7.53451475 28.1099836 13.4140393 50.0459016 18.3473836 50.0459016"></polygon>
                            <polygon id="Fill-28" fill="#0F6DFF" mask="url(#mask-5)" points="18.3525967 39.8437492 18.3525967 28.1098967 15.2073508 28.1098967"></polygon>
                            <polyline id="Fill-29" fill="#0F6DFF" mask="url(#mask-5)" points="0.000173770492 28.1092016 4.79363279 28.1092016 10.6740262 50.0451197 5.86753443 50.0451197 0.00104262295 28.1561197"></polyline>
                        </g>
                    </g>
                </g>
            </g>
        </g>
    </g>
</svg>